<?xml version="1.0" encoding="UTF-8" standalone="no"?>
<svg
   xmlns:dc="http://purl.org/dc/elements/1.1/"
   xmlns:cc="http://creativecommons.org/ns#"
   xmlns:rdf="http://www.w3.org/1999/02/22-rdf-syntax-ns#"
   xmlns:svg="http://www.w3.org/2000/svg"
   xmlns="http://www.w3.org/2000/svg"
   viewBox="0 0 1066.6667 1066.6667"
   height="1066.6667"
   width="1066.6667"
   xml:space="preserve"
   id="svg2"
   version="1.1"><metadata
     id="metadata8"><rdf:RDF><cc:Work
         rdf:about=""><dc:format>image/svg+xml</dc:format><dc:type
           rdf:resource="http://purl.org/dc/dcmitype/StillImage" /></cc:Work></rdf:RDF></metadata><defs
     id="defs6" /><g
     transform="matrix(1.3333333,0,0,-1.3333333,0,1066.6667)"
     id="g10"><g
       transform="scale(0.1)"
       id="g12"><path
         id="path14"
         style="fill:#ffffff;fill-opacity:1;fill-rule:nonzero;stroke:none"
         d="M 0,0 H 8000 V 8000 H 0 V 0" /><path
         id="path16"
         style="fill:#fbcd40;fill-opacity:1;fill-rule:evenodd;stroke:none"
         d="m 3787.62,4959.27 c 0,-423.85 -343.57,-767.42 -767.42,-767.42 -423.85,0 -767.43,343.57 -767.43,767.42 0,422.91 343.58,766.49 767.43,766.49 423.85,0 767.42,-343.58 767.42,-766.49 v 0" /><path
         id="path18"
         style="fill:#29364a;fill-opacity:1;fill-rule:evenodd;stroke:none"
         d="m 3402.04,5015.28 9.33,-216.59 c -204.46,-208.19 -572.3,-185.79 -742.2,-6.55 l -0.94,211.95 351.97,-147.52 381.84,158.71 v 0" /><path
         id="path20"
         style="fill:#30445b;fill-opacity:1;fill-rule:evenodd;stroke:none"
         d="m 2409.62,5054.49 610.58,212.87 610.57,-212.87 -610.57,-212.86 -610.58,212.86" /><path
         id="path22"
         style="fill:#f2564e;fill-opacity:1;fill-rule:evenodd;stroke:none"
         d="m 3027.66,5112.37 -410.78,-111.1 c -3.75,-0.93 -5.61,-2.8 -5.61,-7.46 l -1.87,-183 c 13.08,-4.66 22.42,-18.67 22.42,-34.54 0,-20.54 -14.94,-36.41 -34.54,-36.41 -18.69,0 -34.55,15.87 -34.55,36.41 0,14.94 8.4,28.01 20.54,33.62 l 2.79,199.79 c -0.92,6.53 1.87,11.2 9.34,14.01 l 416.39,111.09 c 14.93,4.66 29.88,-12.14 15.87,-22.41 v 0 0" /><path
         id="path24"
         style="fill:#30445b;fill-opacity:1;fill-rule:evenodd;stroke:none"
         d="m 3787.62,1123.12 c 0,-422.96 -343.57,-766.53 -767.42,-766.53 -423.85,0 -767.43,343.57 -767.43,766.53 0,423.83 343.58,767.41 767.43,767.41 423.85,0 767.42,-343.58 767.42,-767.41 v 0" /><path
         id="path26"
         style="fill:#e9ecf1;fill-opacity:1;fill-rule:evenodd;stroke:none"
         d="M 2713.03,982.109 H 3328.3 V 848.621 h -615.27 z m 615.27,442.541 v -199.81 h -615.27 v 199.81 h 615.27 z m 0,-420.14 h -615.27 v 198.88 h 615.27 v -198.88 z m 42.93,-155.889 v 659.089 h -42.93 v -61.59 h -615.27 v 61.59 h -43.86 V 848.621 h -48.55 V 737.492 h 800.1 v 111.129 h -49.49" /><path
         id="path28"
         style="fill:#f03e38;fill-opacity:1;fill-rule:evenodd;stroke:none"
         d="m 2786.79,1361.15 v 0 c -16.79,0 -29.87,13.09 -29.87,29.88 v 88.71 c 0,16.78 13.08,29.88 29.87,29.88 v 0 c 16.8,0 29.88,-13.1 29.88,-29.88 v -88.71 c 0,-16.79 -13.08,-29.88 -29.88,-29.88 v 0" /><path
         id="path30"
         style="fill:#f03e38;fill-opacity:1;fill-rule:evenodd;stroke:none"
         d="m 2857.74,1361.15 v 0 c -16.79,0 -29.86,13.09 -29.86,29.88 v 88.71 c 0,16.78 13.07,29.88 29.86,29.88 v 0 c 16.83,0 29.89,-13.1 29.89,-29.88 v -88.71 c 0,-16.79 -13.06,-29.88 -29.89,-29.88 v 0" /><path
         id="path32"
         style="fill:#6bc7ef;fill-opacity:1;fill-rule:evenodd;stroke:none"
         d="m 2925.89,1361.15 v 0 c -16.8,0 -29.86,13.09 -29.86,29.88 v 88.71 c 0,16.78 13.06,29.88 29.86,29.88 v 0 c 16.82,0 29.88,-13.1 29.88,-29.88 v -88.71 c 0,-16.79 -13.06,-29.88 -29.88,-29.88 v 0" /><path
         id="path34"
         style="fill:#6dcdb3;fill-opacity:1;fill-rule:evenodd;stroke:none"
         d="m 2789.6,918.648 v 0 c -16.8,0 -29.88,13.993 -29.88,29.883 v 88.679 c 0,16.81 13.08,29.87 29.88,29.87 v 0 c 15.87,0 29.87,-13.06 29.87,-29.87 v -88.679 c 0,-15.89 -14,-29.883 -29.87,-29.883 v 0" /><path
         id="path36"
         style="fill:#6dcdb3;fill-opacity:1;fill-rule:evenodd;stroke:none"
         d="m 2944.58,918.648 v 0 c -16.83,0 -29.88,13.993 -29.88,29.883 v 88.679 c 0,16.81 13.05,29.87 29.88,29.87 v 0 c 16.79,0 29.86,-13.06 29.86,-29.87 v -88.679 c 0,-15.89 -13.07,-29.883 -29.86,-29.883 v 0" /><path
         id="path38"
         style="fill:#6bc7ef;fill-opacity:1;fill-rule:evenodd;stroke:none"
         d="m 2994.98,1361.15 v 0 c -15.87,0 -29.87,13.09 -29.87,29.88 v 88.71 c 0,16.78 14,29.88 29.87,29.88 v 0 c 16.81,0 29.88,-13.1 29.88,-29.88 v -88.71 c 0,-16.79 -13.07,-29.88 -29.88,-29.88 v 0" /><path
         id="path40"
         style="fill:#6bc7ef;fill-opacity:1;fill-rule:evenodd;stroke:none"
         d="m 3212.52,1361.15 v 0 c -16.8,0 -29.88,13.09 -29.88,29.88 v 88.71 c 0,16.78 13.08,29.88 29.88,29.88 v 0 c 15.87,0 29.88,-13.1 29.88,-29.88 v -88.71 c 0,-16.79 -14.01,-29.88 -29.88,-29.88 v 0" /><path
         id="path42"
         style="fill:#6bc7ef;fill-opacity:1;fill-rule:evenodd;stroke:none"
         d="m 3283.47,1361.15 v 0 c -16.8,0 -29.88,13.09 -29.88,29.88 v 88.71 c 0,16.78 13.08,29.88 29.88,29.88 v 0 c 15.88,0 29.88,-13.1 29.88,-29.88 v -88.71 c 0,-16.79 -14,-29.88 -29.88,-29.88 v 0" /><path
         id="path44"
         style="fill:#fbcd40;fill-opacity:1;fill-rule:evenodd;stroke:none"
         d="m 2768.12,1143.62 v 0 c -16.81,0 -29.87,13.06 -29.87,29.9 v 88.66 c 0,15.9 13.06,29.88 29.87,29.88 v 0 c 16.8,0 29.88,-13.98 29.88,-29.88 v -88.66 c 0,-16.84 -13.08,-29.9 -29.88,-29.9 v 0" /><path
         id="path46"
         style="fill:#fbcd40;fill-opacity:1;fill-rule:evenodd;stroke:none"
         d="m 2839.07,1143.62 v 0 c -16.8,0 -29.87,13.06 -29.87,29.9 v 88.66 c 0,15.9 13.07,29.88 29.87,29.88 v 0 c 16.8,0 29.88,-13.98 29.88,-29.88 v -88.66 c 0,-16.84 -13.08,-29.9 -29.88,-29.9 v 0" /><path
         id="path48"
         style="fill:#fbcd40;fill-opacity:1;fill-rule:evenodd;stroke:none"
         d="m 2907.22,1143.62 v 0 c -16.8,0 -29.86,13.06 -29.86,29.9 v 88.66 c 0,15.9 13.06,29.88 29.86,29.88 v 0 c 16.81,0 29.88,-13.98 29.88,-29.88 v -88.66 c 0,-16.84 -13.07,-29.9 -29.88,-29.9 v 0" /><path
         id="path50"
         style="fill:#fbcd40;fill-opacity:1;fill-rule:evenodd;stroke:none"
         d="m 2976.31,1143.62 v 0 c -15.87,0 -29.86,13.06 -29.86,29.9 v 88.66 c 0,15.9 13.99,29.88 29.86,29.88 v 0 c 16.8,0 29.88,-13.98 29.88,-29.88 v -88.66 c 0,-16.84 -13.08,-29.9 -29.88,-29.9 v 0" /><path
         id="path52"
         style="fill:#6dcdb3;fill-opacity:1;fill-rule:evenodd;stroke:none"
         d="m 3045.4,1143.62 v 0 c -16.81,0 -29.87,13.06 -29.87,29.9 v 88.66 c 0,15.9 13.06,29.88 29.87,29.88 v 0 c 16.81,0 29.88,-13.98 29.88,-29.88 v -88.66 c 0,-16.84 -13.07,-29.9 -29.88,-29.9 v 0" /><path
         id="path54"
         style="fill:#6dcdb3;fill-opacity:1;fill-rule:evenodd;stroke:none"
         d="m 3114.48,1143.62 v 0 c -15.87,0 -29.86,13.06 -29.86,29.9 v 88.66 c 0,15.9 13.99,29.88 29.86,29.88 v 0 c 16.81,0 29.89,-13.98 29.89,-29.88 v -88.66 c 0,-16.84 -13.08,-29.9 -29.89,-29.9 v 0" /><path
         id="path56"
         style="fill:#a0d240;fill-opacity:1;fill-rule:evenodd;stroke:none"
         d="m 3010.86,918.648 v 0 c -15.88,0 -29.87,13.993 -29.87,29.883 v 88.679 c 0,16.81 13.99,29.87 29.87,29.87 v 0 c 16.8,0 29.87,-13.06 29.87,-29.87 v -88.679 c 0,-15.89 -13.07,-29.883 -29.87,-29.883 v 0" /><path
         id="path58"
         style="fill:#a0d240;fill-opacity:1;fill-rule:evenodd;stroke:none"
         d="m 3078.08,918.648 v 0 c -16.82,0 -29.88,13.993 -29.88,29.883 v 88.679 c 0,16.81 13.06,29.87 29.88,29.87 v 0 c 16.8,0 29.87,-13.06 29.87,-29.87 v -88.679 c 0,-15.89 -13.07,-29.883 -29.87,-29.883 v 0" /><path
         id="path60"
         style="fill:#94d899;fill-opacity:1;fill-rule:evenodd;stroke:none"
         d="m 5778.05,6876.89 c 0,440.66 -357.55,798.23 -798.23,798.23 -440.67,0 -798.24,-357.57 -798.24,-798.23 0,-440.66 357.57,-798.24 798.24,-798.24 440.68,0 798.23,357.58 798.23,798.24 v 0" /><path
         id="path62"
         style="fill:#201d1d;fill-opacity:1;fill-rule:evenodd;stroke:none"
         d="m 4631.58,6547.32 c 48.55,82.17 126.07,178.32 47.64,323.04 -114.85,505.08 416.36,606.83 496.68,398.64 130.67,-49.47 127.87,-320.23 60.65,-463.06 -3.73,-57.89 -64.39,-109.24 45.77,-259.55 l 7.47,0.93 v 0 c -141.92,-41.07 -507.9,-21.47 -658.21,0 v 0" /><path
         id="path64"
         style="fill:#efb168;fill-opacity:1;fill-rule:evenodd;stroke:none"
         d="m 4865.93,6699.51 c -2.79,-45.76 -13.09,-76.57 -26.14,-102.7 -17.73,-34.54 -41.08,-58.82 -71.89,-74.69 -98.97,-87.75 13.06,-80.29 210.06,-195.13 210.06,118.57 317.42,105.51 213.78,192.32 -30.8,16.8 -55.06,40.16 -71.88,77.5 -12.13,26.13 -21.47,58.81 -23.35,102.7 0,0 -78.41,-60.7 -126.95,-51.36 -48.57,9.34 -103.63,51.36 -103.63,51.36 v 0" /><path
         id="path66"
         style="fill:#fbcc87;fill-opacity:1;fill-rule:evenodd;stroke:none"
         d="m 4981.69,7231.66 c -203.54,0 -233.42,-146.58 -233.42,-327.7 0,-185.79 155.94,-327.69 233.42,-327.69 76.54,0 232.48,141.9 232.48,327.69 0,181.12 -29.87,327.7 -232.48,327.7 v 0" /><path
         id="path68"
         style="fill:#fbcc87;fill-opacity:1;fill-rule:evenodd;stroke:none"
         d="m 4751.11,6924.51 c -11.23,40.13 -25.22,40.13 -31.74,29.86 -6.57,-10.26 14.93,-49.46 15.84,-82.15 0,-32.67 10.27,-37.36 22.44,-25.21 11.18,11.21 -6.54,77.5 -6.54,77.5 v 0" /><path
         id="path70"
         style="fill:#e34d60;fill-opacity:1;fill-rule:evenodd;stroke:none"
         d="m 4898.61,6710.7 c 0,0 50.39,24.29 65.35,24.29 6.54,0 14,-8.42 17.73,-8.42 2.8,0 10.25,8.42 16.83,8.42 14.91,0 65.32,-24.29 65.32,-24.29 0,0 -11.19,-8.4 -21.46,-13.06 -23.36,-8.41 -42.01,-16.81 -60.69,-16.81 -19.58,0 -38.27,8.4 -61.63,16.81 -10.26,4.66 -21.45,13.06 -21.45,13.06 v 0" /><path
         id="path72"
         style="fill:#fbcc87;fill-opacity:1;fill-rule:evenodd;stroke:none"
         d="m 5213.23,6920.78 c 9.33,35.47 22.39,35.47 28.01,27.07 5.61,-9.35 -14,-44.83 -14,-73.76 -0.95,-28.95 -9.35,-32.68 -19.59,-22.41 -11.23,10.26 5.58,69.1 5.58,69.1 v 0" /><path
         id="path74"
         style="fill:#201d1d;fill-opacity:1;fill-rule:evenodd;stroke:none"
         d="m 4981.69,7355.82 c 130.7,0 217.52,-66.27 242.73,-185.78 35.48,-172.72 -10.25,-250.22 -14.91,-266.08 0,0 -14.97,210.06 -227.82,275.41 -213.79,-65.35 -228.72,-275.41 -228.72,-275.41 -4.7,15.86 -50.42,93.36 -14.01,266.08 24.27,119.51 111.09,185.78 242.73,185.78 v 0" /><path
         id="path76"
         style="fill:#ffffff;fill-opacity:1;fill-rule:evenodd;stroke:none"
         d="m 5119.86,6594.94 c 78.41,-82.16 177.39,-112.04 310.9,-131.64 84.01,-12.14 129.78,-57.88 154.96,-106.43 -146.57,-170.85 -364.09,-278.22 -605.9,-278.22 v 0 0 c -242.74,0 -460.26,107.37 -605.88,278.22 24.24,48.55 70.01,94.29 154.02,106.43 134.44,19.6 232.47,48.55 310.89,130.71 176.44,-155.91 104.57,-154.98 281.01,0.93 v 0" /><path
         id="path78"
         style="fill:#50a8ad;fill-opacity:1;fill-rule:evenodd;stroke:none"
         d="m 4373.94,6356.87 c 140.96,-164.31 349.16,-271.67 581.61,-278.22 h 5.62 l -270.75,421.06 c -47.65,-16.81 -101.78,-26.14 -162.46,-36.41 -84.01,-12.14 -129.78,-57.88 -154.02,-106.43 z m 895.29,143.77 c 46.7,-16.81 100.83,-28 161.53,-37.34 84.01,-12.14 129.78,-57.88 154.96,-106.43 -141.9,-164.31 -349.17,-271.67 -581.61,-278.22 h -6.53 l 271.65,421.99" /><path
         id="path80"
         style="fill:#65988e;fill-opacity:1;fill-rule:evenodd;stroke:none"
         d="m 4766.96,6546.39 -3.73,5.6 3.73,-5.6 v 0 0" /><path
         id="path82"
         style="fill:#f46c5d;fill-opacity:1;fill-rule:evenodd;stroke:none"
         d="m 1859.72,6876.89 c 0,440.66 -357.56,798.23 -798.22,798.23 -441.605,0 -798.234,-357.57 -798.234,-798.23 0,-440.66 356.629,-798.24 798.234,-798.24 440.66,0 798.22,357.58 798.22,798.24 v 0" /><path
         id="path84"
         style="fill:#fcd7c8;fill-opacity:1;fill-rule:evenodd;stroke:none"
         d="M 936.387,6607.08 C 660.969,6486.65 578.828,6422.23 546.148,6393.27 c -17.742,-14.93 -32.675,-45.73 -45.757,-84.95 143.793,-141.91 342.64,-229.67 561.109,-229.67 218.46,0 416.38,87.76 560.16,229.67 -13.07,39.22 -28.01,70.02 -45.75,84.95 -32.68,28.96 -112.02,91.5 -387.44,212.86 l -252.083,0.95" /><path
         id="path86"
         style="fill:#2e2d2d;fill-opacity:1;fill-rule:evenodd;stroke:none"
         d="M 936.387,6607.08 C 660.969,6486.65 578.828,6422.23 546.148,6393.27 c -17.742,-14.93 -32.675,-45.73 -45.757,-84.95 143.793,-141.91 342.64,-229.67 561.109,-229.67 218.46,0 416.38,87.76 560.16,229.67 -13.07,39.22 -28.01,70.02 -45.75,84.95 -32.68,28.96 -112.02,91.5 -387.44,212.86 l -252.083,0.95" /><path
         id="path88"
         style="fill:#efb168;fill-opacity:1;fill-rule:evenodd;stroke:none"
         d="M 1209.94,6774.19 H 913.051 c 45.758,-175.52 3.73,-254.88 3.73,-254.88 0,0 64.426,-65.34 144.719,-65.34 79.35,0 143.78,65.34 143.78,65.34 0,0 -42.03,79.36 4.66,254.88 v 0" /><path
         id="path90"
         style="fill:#fbcc87;fill-opacity:1;fill-rule:evenodd;stroke:none"
         d="m 801.957,7034.67 c -64.418,12.14 -9.34,-182.05 38.277,-153.12 l 25.2,-74.68 c 23.351,-68.16 81.23,-128.83 125.097,-177.38 16.809,-19.61 122.309,-18.67 140.039,-0.94 48.56,51.35 106.45,109.23 127.92,178.32 l 23.34,74.68 c 47.61,-28.93 103.62,165.26 38.27,153.12 4.68,151.24 -102.7,297.81 -258.6,298.75 -156.859,-0.94 -264.219,-147.51 -259.543,-298.75 v 0" /><path
         id="path92"
         style="fill:#ffffff;fill-opacity:1;fill-rule:evenodd;stroke:none"
         d="m 1254.76,6735.91 v 0 0 z" /><path
         id="path94"
         style="fill:#ffffff;fill-opacity:1;fill-rule:evenodd;stroke:none"
         d="m 1214.6,6740.58 v 0 0" /><path
         id="path96"
         style="fill:#e8e8e8;fill-opacity:1;fill-rule:evenodd;stroke:none"
         d="m 1061.5,6476.37 c 0,0 -185.785,-43.87 -185.785,-56.01 0,-8.41 42.937,-233.41 61.609,-332.37 40.156,-6.54 82.156,-9.34 124.176,-9.34 48.54,0 95.22,3.73 141.91,12.15 l 25.2,328.63 -167.11,56.94" /><path
         id="path98"
         style="fill:#1b1818;fill-opacity:1;fill-rule:evenodd;stroke:none"
         d="m 927.063,6603.34 v -60.68 l 54.144,-460.28 c -43.883,4.69 -85.894,12.14 -126.969,23.36 l -78.425,159.64 104.562,70.02 -127.898,59.74 117.617,182.99 56.969,25.21" /><path
         id="path100"
         style="fill:#1b1818;fill-opacity:1;fill-rule:evenodd;stroke:none"
         d="m 1195,6603.34 v -60.68 l -54.15,-460.28 c 42.94,3.75 84.96,12.14 126.03,22.42 l 79.37,160.58 -105.5,70.02 128.83,59.74 -105.49,177.4 -69.09,30.8" /><path
         id="path102"
         style="fill:#4fa9e2;fill-opacity:1;fill-rule:evenodd;stroke:none"
         d="m 1003.61,6414.74 32.67,-50.39 c 16.82,0 33.62,0 49.49,0 l 32.68,50.39 -56.95,61.63 -57.89,-61.63" /><path
         id="path104"
         style="fill:#4fa9e2;fill-opacity:1;fill-rule:evenodd;stroke:none"
         d="m 1036.28,6364.35 -41.065,-282.9 c 21.465,-1.87 43.875,-2.8 66.285,-2.8 21.47,0 43.88,0.93 65.35,2.8 l -41.08,282.9 h -49.49" /><path
         id="path106"
         style="fill:#ffffff;fill-opacity:1;fill-rule:evenodd;stroke:none"
         d="m 934.516,6635.08 -18.661,-36.41 32.668,-237.14 112.977,114.84 -126.984,158.71" /><path
         id="path108"
         style="fill:#ffffff;fill-opacity:1;fill-rule:evenodd;stroke:none"
         d="m 1188.47,6635.08 15.87,-36.41 -30.81,-239.01 -112.03,116.71 126.97,158.71" /><path
         id="path110"
         style="fill:#8ca6ac;fill-opacity:1;fill-rule:evenodd;stroke:none"
         d="m 1035.36,6362.46 v 0 l 0.92,1.89 z m 51.34,0 v 0 l -0.93,1.89 0.93,-1.89" /><path
         id="path112"
         style="fill:#4496d2;fill-opacity:1;fill-rule:evenodd;stroke:none"
         d="m 1086.7,6362.46 h -51.34 l 0.92,1.89 h 49.49 l 0.93,-1.89" /><path
         id="path114"
         style="fill:#1f1613;fill-opacity:1;fill-rule:evenodd;stroke:none"
         d="m 841.172,6878.75 c -22.406,77.5 -65.359,222.21 -44.824,263.28 0,0 -46.668,62.56 19.605,122.3 0,0 9.34,98.03 112.039,44.82 0,0 41.071,114.82 278.218,33.61 l -36.41,-6.55 c 182.05,-99.88 190.45,-104.55 149.37,-309.01 -8.4,-39.22 -25.21,-82.16 -35.48,-139.1 0,0 16.8,120.42 -22.4,164.3 0,0 31.74,79.37 -28.01,111.1 0,0 -37.35,28.02 -70.03,3.75 0,0 -111.1,-28.02 -176.441,2.79 0,0 -58.817,28 -87.766,-8.41 0,0 -40.137,-34.54 -14.938,-114.82 0,0 -49.48,-9.35 -42.933,-168.06 v 0" /><path
         id="path116"
         style="fill:#201d1d;fill-opacity:1;fill-rule:evenodd;stroke:none"
         d="m 1068.03,6800.33 c -3.73,0 -6.53,-5.61 -6.53,-5.61 0,0 -2.81,5.61 -6.54,5.61 -15.87,0 -80.296,-6.54 -98.022,-29.87 0,0 89.632,1.86 95.212,2.79 4.68,1.87 9.35,11.22 9.35,11.22 0,0 3.73,-9.35 9.33,-11.22 4.66,-0.93 95.24,-2.79 95.24,-2.79 -18.69,23.33 -83.1,29.87 -98.04,29.87 v 0" /><path
         id="path118"
         style="fill:#30445b;fill-opacity:1;fill-rule:evenodd;stroke:none"
         d="m 7705.94,3041.66 c 0,-423.89 -343.57,-767.42 -767.42,-767.42 -423.85,0 -767.42,343.53 -767.42,767.42 0,422.92 343.57,766.46 767.42,766.46 423.85,0 767.42,-343.54 767.42,-766.46 v 0" /><path
         id="path120"
         style="fill:#94d899;fill-opacity:1;fill-rule:evenodd;stroke:none"
         d="m 7149.51,3450.57 c 1.87,13.07 0.93,25.2 0,37.32 -11.19,0.94 -23.32,1.88 -35.48,0 v 0 0 0 h -0.93 v 0 h -0.94 v 0 c -0.93,0 -1.85,-0.92 -3.72,-0.92 v 0 c -0.94,0 -2.8,0 -3.74,0 v 0 c -0.92,-0.93 -2.79,-0.93 -3.73,-0.93 v 0 c -1.87,-0.94 -2.8,-0.94 -3.71,-0.94 v 0 c -1.88,0 -2.82,-0.94 -4.68,-0.94 v 0 c -0.94,0 -1.86,-0.93 -3.73,-0.93 v 0 c -0.93,-0.93 -1.87,-0.93 -3.76,-0.93 v 0 c -0.94,-0.93 -2.8,-0.93 -3.74,-1.86 v 0 c -0.93,0 -2.79,-0.94 -3.72,-0.94 v 0 c -8.4,-2.8 -17.73,-6.53 -26.16,-11.19 v 0 c -0.92,-0.93 -1.87,-0.93 -2.8,-1.86 v 0 c -1.85,-0.94 -2.79,-1.87 -3.73,-1.87 v 0 c -1.86,-0.94 -2.79,-1.86 -3.72,-1.86 v 0 c -52.27,-31.74 -92.41,-87.78 -99.9,-146.62 -1.88,-13.04 -1.88,-25.17 0,-36.39 11.23,-1.87 23.35,-1.87 36.4,0 84.04,10.3 160.6,87.76 171.79,170.86 v 0" /><path
         id="path122"
         style="fill:#b86d4c;fill-opacity:1;fill-rule:evenodd;stroke:none"
         d="m 6953.48,3209.69 c -7.5,0 -14.04,5.59 -14.04,14.02 0,87.74 -13.05,204.46 -51.31,241.8 -5.61,4.67 -5.61,13.99 0,19.59 4.65,5.59 13.98,5.59 19.58,0 56.02,-54.12 59.75,-213.78 59.75,-261.39 0,-8.43 -5.58,-14.02 -13.98,-14.02 v 0" /><path
         id="path124"
         style="fill:#f46c5d;fill-opacity:1;fill-rule:evenodd;stroke:none"
         d="m 7150.44,3264.79 c -49.47,7.45 -88.68,-3.75 -123.21,-13.06 -24.29,-7.5 -47.64,-14.03 -73.75,-14.03 v 0 0 c -25.23,0 -48.58,6.53 -72.83,14.03 -34.55,9.31 -73.75,20.51 -123.24,13.06 -83.08,-12.13 -182.99,-60.71 -182.99,-218.47 0,-149.4 50.4,-353.83 189.52,-437.87 37.34,-22.41 79.38,-15.85 124.19,-8.4 21.44,2.8 43.85,6.53 65.35,6.53 22.38,0 44.8,-3.73 66.29,-6.53 21.45,-3.72 41.99,-6.52 62.52,-6.52 21.49,0 42.03,3.74 60.69,14.92 140.05,84.04 189.54,288.47 189.54,437.87 0,157.76 -98.97,206.34 -182.08,218.47 v 0" /><path
         id="path126"
         style="fill:#30445b;fill-opacity:1;fill-rule:evenodd;stroke:none"
         d="m 3818.43,6876.89 c 0,440.66 -357.58,798.23 -798.23,798.23 -440.66,0 -798.24,-357.57 -798.24,-798.23 0,-440.66 357.58,-798.24 798.24,-798.24 440.65,0 798.23,357.58 798.23,798.24 v 0" /><path
         id="path128"
         style="fill:#efb168;fill-opacity:1;fill-rule:evenodd;stroke:none"
         d="m 3160.23,6703.24 h -279.14 c 42.94,-127.9 2.8,-186.73 2.8,-186.73 0,0 60.69,-20.53 136.31,-20.53 75.62,0 136.3,20.53 136.3,20.53 0,0 -40.15,58.83 3.73,186.73 v 0" /><path
         id="path130"
         style="fill:#50a8ad;fill-opacity:1;fill-rule:evenodd;stroke:none"
         d="m 2816.67,6506.25 c -6.53,-2.8 -13.08,-5.61 -19.61,-8.41 m 19.61,8.41 v 0 c -6.53,-2.8 -13.08,-5.61 -19.61,-8.41 v 0 c -2.79,-1.86 -6.53,-3.73 -9.35,-4.67 v 0 c -2.79,-1.86 -6.52,-2.79 -9.32,-4.65 v 0 c -2.79,-1.87 -5.59,-2.83 -9.34,-4.69 v 0 c -2.8,-0.93 -5.6,-2.79 -8.39,-3.73 v 0 c -2.8,-1.86 -5.6,-2.8 -8.42,-4.66 v 0 c -2.8,-0.93 -5.6,-2.8 -8.39,-3.74 v 0 c -2.8,-1.86 -5.6,-2.79 -8.4,-3.73 v 0 c -2.81,-1.88 -4.68,-2.81 -7.48,-4.67 v 0 c -2.79,-0.94 -5.59,-2.8 -7.45,-3.73 v 0 c -2.81,-0.94 -5.62,-2.8 -7.49,-3.74 v 0 c -2.79,-0.93 -5.59,-2.79 -7.46,-3.73 v 0 c -2.8,-0.94 -4.66,-2.81 -7.47,-3.75 v 0 c -1.87,-0.92 -4.67,-2.79 -6.54,-3.73 v 0 c -1.86,-0.93 -4.66,-2.79 -6.53,-3.72 v 0 c -2.8,-0.94 -4.67,-1.87 -6.54,-3.74 -1.86,-0.93 -4.66,-1.86 -6.53,-2.79 -1.86,-0.94 -3.73,-2.82 -5.6,-3.75 v 0 c -2.81,-0.93 -4.67,-1.87 -6.54,-2.8 v 0 l -5.6,-3.73 c -1.86,-0.94 -3.73,-1.86 -5.61,-2.8 v 0 c -1.86,-0.93 -3.73,-2.8 -5.6,-3.73 -1.86,-0.93 -2.79,-1.88 -4.66,-2.82 l -5.6,-2.79 v 0 c -1.86,-0.93 -2.81,-1.87 -4.67,-2.8 -1.87,-0.93 -2.81,-1.87 -4.67,-2.8 v 0 c -1.86,-0.93 -2.79,-1.86 -4.66,-2.8 l -4.68,-2.79 -3.73,-2.8 -4.67,-2.82 c -0.93,-0.93 -2.79,-1.87 -3.73,-2.79 l -3.73,-2.8 c -1.86,0 -2.81,-0.94 -3.75,-1.87 l -3.72,-2.8 -3.73,-1.86 v 0 l -2.81,-2.82 -3.73,-1.86 -2.81,-1.87 -2.8,-2.8 -2.8,-1.86 v 0 l -2.79,-1.87 -2.8,-1.86 -2.8,-1.87 -1.87,-1.86 -2.81,-1.89 v 0 l -1.86,-1.86 -1.87,-1.86 -2.8,-1.87 -1.86,-0.93 -1.87,-1.87 -1.87,-0.94 -0.93,-1.86 -1.88,-0.93 -1.87,-1.87 -0.93,-0.93 c -15.87,-14 -29.87,-41.08 -41.07,-75.63 139.11,-120.44 321.15,-193.26 520.02,-193.26 198.85,0 380.91,72.82 520.95,193.26 -12.14,34.55 -25.21,61.63 -41.09,75.63 -28,24.27 -90.56,73.75 -290.34,165.24 v 0.93 l -37.34,16.81 c -6.55,2.8 -13.08,5.59 -18.67,8.41 l -133.51,-262.36 -131.65,262.36 34.55,7.46 -38.28,-8.4 v 0 c -14,-6.53 -27.08,-12.14 -40.14,-18.68 l -1.86,-0.93 v 0 c -9.35,-3.74 -17.74,-7.47 -26.15,-12.13 v 0" /><path
         id="path132"
         style="fill:#ffffff;fill-opacity:1;fill-rule:evenodd;stroke:none"
         d="m 3163.97,6533.32 -10.26,5.61 -133.51,-262.36 -131.65,262.36 -3.73,-0.94 v 0 l -8.39,-3.74 143.77,-286.6 143.77,285.67" /><path
         id="path134"
         style="fill:#efb168;fill-opacity:1;fill-rule:evenodd;stroke:none"
         d="m 3153.71,6538.93 -37.36,5.59 -193.25,1.87 -34.55,-7.46 131.65,-262.36 133.51,262.36" /><path
         id="path136"
         style="fill:#fbcc87;fill-opacity:1;fill-rule:evenodd;stroke:none"
         d="m 2737.32,6988.92 c -70.96,13.06 -10.27,-196.99 40.14,-165.25 l 28.01,-81.22 c 24.27,-72.83 86.82,-139.11 134.43,-191.4 18.67,-20.53 132.58,-20.53 151.25,-0.93 52.28,55.08 114.82,117.64 138.18,193.26 l 25.2,80.29 c 51.34,-31.74 111.1,178.31 41.08,165.25 4.66,163.38 -110.17,322.1 -279.15,323.03 -168.98,-0.93 -284.75,-159.65 -279.14,-323.03 v 0" /><path
         id="path138"
         style="fill:#1f1613;fill-opacity:1;fill-rule:evenodd;stroke:none"
         d="m 2788.66,6821.81 c 0,0 -84.02,187.66 -52.27,349.17 0,0 18.67,159.64 190.44,188.59 0,0 174.58,48.53 235.27,-47.62 0,0 155.91,-8.41 153.12,-145.64 0,0 -5.62,-220.33 -84.03,-344.5 0,0 33.61,172.72 -18.67,212.86 0,0 25.19,98.03 -37.34,102.69 0,0 -84.96,-65.35 -180.2,-81.22 0,0 64.42,32.67 90.57,85.89 0,0 -135.37,-98.97 -251.15,-119.51 0,0 41.09,39.23 61.63,102.7 0,0 -61.63,-84.95 -100.83,-112.95 l -6.54,-190.46" /><path
         id="path140"
         style="fill:#ffffff;fill-opacity:1;fill-rule:evenodd;stroke:none"
         d="m 3225.59,6531.46 v 0 0 z" /><path
         id="path142"
         style="fill:#ffffff;fill-opacity:1;fill-rule:evenodd;stroke:none"
         d="m 3182.64,6536.11 v 0 0" /><path
         id="path144"
         style="fill:#30445b;fill-opacity:1;fill-rule:evenodd;stroke:none"
         d="m 1859.72,4959.27 c 0,439.72 -358.49,798.23 -798.22,798.23 -439.738,0 -798.234,-358.51 -798.234,-798.23 0,-439.72 358.496,-798.24 798.234,-798.24 439.73,0 798.22,358.52 798.22,798.24 v 0" /><path
         id="path146"
         style="fill:#f03e38;fill-opacity:1;fill-rule:evenodd;stroke:none"
         d="M 1145.51,5247.76 H 974.664 l -218.457,449.05 c 47.617,19.6 98.031,34.54 150.32,44.82 l 154.973,-319.29 10.26,-20.55 v 0 l 9.35,-19.61 46.67,-96.15 9.34,-19.6 v 0 l 8.39,-18.67" /><path
         id="path148"
         style="fill:#ffffff;fill-opacity:1;fill-rule:evenodd;stroke:none"
         d="m 981.207,5112.37 h 159.643 l 30.81,102.71 c 2.8,8.4 1.87,15.87 -3.73,22.4 -4.68,6.53 -11.21,10.28 -20.55,10.28 H 974.664 c -7.461,0 -14.93,-3.75 -20.539,-10.28 -4.66,-6.53 -6.527,-14 -3.734,-22.4 z M 1150.2,5086.23 H 972.797 c -5.594,0 -11.192,3.74 -12.121,9.35 l -35.481,112.02 c -4.683,15.88 -1.867,32.68 8.399,45.76 10.269,13.07 24.277,20.53 41.07,20.53 h 173.656 c 16.8,0 31.74,-7.46 42.02,-20.53 10.27,-13.08 13.07,-29.88 7.46,-45.76 l -33.62,-112.02 c -3.73,-5.61 -7.46,-9.35 -13.98,-9.35 v 0" /><path
         id="path150"
         style="fill:#fbcd40;fill-opacity:1;fill-rule:evenodd;stroke:none"
         d="m 1502.16,4714.66 v 0 c 27.06,27.07 27.06,70.02 0,97.09 v 0 c -19.61,19.62 -26.15,49.48 -14.01,75.63 v 0 c 14.01,35.48 -2.79,75.62 -38.27,90.56 v 0 c -26.15,10.27 -42.96,35.47 -42.96,63.49 v 0 c 0,38.27 -31.72,69.09 -69.08,69.09 v 0 c -27.07,0 -53.22,16.8 -64.41,42.93 v 0 c -14.01,35.49 -54.15,52.28 -89.64,38.28 v 0 c -26.14,-10.26 -55.07,-5.6 -75.62,14 v 0 c -27.06,28.02 -70.02,28.02 -98.01,0 v 0 c -19.629,-19.6 -49.484,-26.13 -75.644,-14 v 0 c -35.473,14 -75.61,-2.79 -89.618,-38.28 v 0 c -10.273,-26.13 -35.48,-42.93 -64.425,-42.93 v 0 c -37.336,0 -69.086,-30.82 -69.086,-69.09 v 0 c 0,-27.08 -16.801,-53.22 -42.942,-63.49 v 0 c -35.472,-14.94 -52.273,-55.08 -37.336,-90.56 v 0 c 10.258,-26.15 4.661,-54.14 -14.937,-75.63 v 0 c -27.086,-27.07 -27.086,-70.02 0,-97.09 v 0 c 19.598,-19.6 26.129,-49.48 14.937,-75.61 v 0 c -14.937,-35.49 1.864,-75.64 37.336,-90.58 v 0 c 26.141,-10.26 42.942,-35.47 42.942,-63.47 v 0 c 0,-38.28 31.75,-69.09 69.086,-69.09 v 0 c 28.011,0 54.152,-17.74 64.425,-42.95 v 0 c 14.008,-35.48 54.145,-52.28 89.618,-38.27 v 0 c 26.16,10.27 55.086,5.61 75.644,-14.01 v 0 c 27.99,-28 70.95,-28 98.01,0 v 0 c 19.61,19.62 49.48,26.15 75.62,14.01 v 0 c 35.49,-14.01 75.63,2.79 89.64,38.27 v 0 c 11.19,25.21 35.48,42.95 64.41,42.95 v 0 c 37.36,0 69.08,30.81 69.08,69.09 v 0 c 0,27.07 16.81,53.21 42.96,63.47 v 0 c 35.48,14.94 52.28,55.09 38.27,90.58 v 0 c -11.2,27.06 -5.6,56.01 14.01,75.61 v 0" /><path
         id="path152"
         style="fill:#f7ad34;fill-opacity:1;fill-rule:evenodd;stroke:none"
         d="m 1387.32,4763.21 c 0,181.12 -146.57,328.63 -327.7,328.63 -182.046,0 -328.612,-147.51 -328.612,-328.63 0,-181.13 146.566,-328.63 328.612,-328.63 181.13,0 327.7,147.5 327.7,328.63 v 0" /><path
         id="path154"
         style="fill:#f2564e;fill-opacity:1;fill-rule:evenodd;stroke:none"
         d="M 1365.85,5696.81 1147.38,5247.76 H 976.543 l 9.332,18.67 8.406,19.6 47.599,96.15 9.35,19.61 10.27,20.55 154.96,319.29 c 51.36,-10.28 101.77,-25.22 149.39,-44.82 v 0" /><path
         id="path156"
         style="fill:#f46c5d;fill-opacity:1;fill-rule:evenodd;stroke:none"
         d="m 5778.05,4959.27 c 0,439.72 -358.49,798.23 -798.23,798.23 -439.73,0 -798.24,-358.51 -798.24,-798.23 0,-439.72 358.51,-798.24 798.24,-798.24 439.74,0 798.23,358.52 798.23,798.24 v 0" /><path
         id="path158"
         style="fill:#30445b;fill-opacity:1;fill-rule:evenodd;stroke:none"
         d="m 4979.82,5215.08 -543.36,89.62 c -4.67,0.93 -8.4,-2.8 -8.4,-7.47 v -695.54 c 0,-3.73 1.86,-7.46 5.59,-7.46 l 546.17,-88.7 v 709.55" /><path
         id="path160"
         style="fill:#d1d7e3;fill-opacity:1;fill-rule:evenodd;stroke:none"
         d="M 4979.82,5188.94 4457,5274.82 v -659.13 l 522.82,-85.89 v 659.14" /><path
         id="path162"
         style="fill:#e9ecf1;fill-opacity:1;fill-rule:evenodd;stroke:none"
         d="m 4508.37,5309.37 c 150.3,42.95 329.55,-0.93 471.45,-121.37 v -658.2 c -143.77,24.28 -379.04,47.62 -522.82,85.89 v 659.13 l 51.37,34.55" /><path
         id="path164"
         style="fill:#ffffff;fill-opacity:1;fill-rule:evenodd;stroke:none"
         d="m 4508.37,5309.37 c 150.3,42.95 329.55,-0.93 471.45,-121.37 v -658.2 c -141.9,121.37 -321.15,115.78 -467.71,98.97 l -3.74,653.52 v 27.08" /><path
         id="path166"
         style="fill:#30445b;fill-opacity:1;fill-rule:evenodd;stroke:none"
         d="m 4979.82,5215.08 542.45,89.62 c 5.58,0.93 9.31,-2.8 9.31,-7.47 v -695.54 c 0,-3.73 -2.78,-7.46 -6.52,-7.46 l -545.24,-88.7 v 709.55" /><path
         id="path168"
         style="fill:#d1d7e3;fill-opacity:1;fill-rule:evenodd;stroke:none"
         d="m 4979.82,5188.94 522.83,85.88 v -659.13 l -522.83,-85.89 v 659.14" /><path
         id="path170"
         style="fill:#e9ecf1;fill-opacity:1;fill-rule:evenodd;stroke:none"
         d="m 5451.31,5309.37 c -151.27,42.95 -329.57,-0.93 -471.49,-121.37 v -658.2 c 143.76,24.28 378.11,47.62 522.83,85.89 v 659.13 l -51.34,34.55" /><path
         id="path172"
         style="fill:#ffffff;fill-opacity:1;fill-rule:evenodd;stroke:none"
         d="m 5451.31,5309.37 c -151.27,42.95 -329.57,-0.93 -471.49,-121.37 v -658.2 c 141.92,121.37 320.22,115.78 467.73,98.97 l 3.76,653.52 v 27.08" /><path
         id="path174"
         style="fill:#d2d3d4;fill-opacity:1;fill-rule:evenodd;stroke:none"
         d="m 4566.24,4988.21 v 0 L 4934.09,4921 v -12.15 L 4566.24,4977 v 11.21" /><path
         id="path176"
         style="fill:#d2d3d4;fill-opacity:1;fill-rule:evenodd;stroke:none"
         d="m 4566.24,4964.86 v 0 l 367.85,-68.16 v -12.12 l -367.85,68.16 v 12.12" /><path
         id="path178"
         style="fill:#d2d3d4;fill-opacity:1;fill-rule:evenodd;stroke:none"
         d="m 4566.24,4940.6 v 0 l 367.85,-68.16 v -11.21 l -367.85,67.23 v 12.14" /><path
         id="path180"
         style="fill:#d2d3d4;fill-opacity:1;fill-rule:evenodd;stroke:none"
         d="m 4566.24,4916.31 v 0 l 367.85,-68.14 v -11.2 l -367.85,67.21 v 12.13" /><path
         id="path182"
         style="fill:#d2d3d4;fill-opacity:1;fill-rule:evenodd;stroke:none"
         d="m 4566.24,4892.05 v 0 l 126.97,-23.34 v -12.14 l -126.97,23.33 v 12.15" /><path
         id="path184"
         style="fill:#d2d3d4;fill-opacity:1;fill-rule:evenodd;stroke:none"
         d="m 4566.24,5146 v 0 l 367.85,-67.24 v -12.13 l -367.85,67.23 V 5146" /><path
         id="path186"
         style="fill:#d2d3d4;fill-opacity:1;fill-rule:evenodd;stroke:none"
         d="m 4566.24,5121.71 v 0 l 367.85,-67.22 v -12.13 l -367.85,68.16 v 11.19" /><path
         id="path188"
         style="fill:#d2d3d4;fill-opacity:1;fill-rule:evenodd;stroke:none"
         d="m 4566.24,5098.37 v 0 l 367.85,-68.15 v -12.14 l -367.85,68.15 v 12.14" /><path
         id="path190"
         style="fill:#d2d3d4;fill-opacity:1;fill-rule:evenodd;stroke:none"
         d="m 4566.24,5074.11 v 0 l 367.85,-68.16 v -12.14 l -367.85,68.16 v 12.14" /><path
         id="path192"
         style="fill:#d2d3d4;fill-opacity:1;fill-rule:evenodd;stroke:none"
         d="m 4566.24,5049.82 v 0 l 161.52,-29.88 v -12.12 l -161.52,29.88 v 12.12" /><path
         id="path194"
         style="fill:#d2d3d4;fill-opacity:1;fill-rule:evenodd;stroke:none"
         d="m 4566.24,5170.26 v 0 l 367.85,-68.16 v -11.2 l -367.85,67.22 v 12.14" /><path
         id="path196"
         style="fill:#d2d3d4;fill-opacity:1;fill-rule:evenodd;stroke:none"
         d="m 4566.24,5012.48 367.85,-67.22 v -12.13 l -367.85,67.21 v 12.14" /><path
         id="path198"
         style="fill:#d2d3d4;fill-opacity:1;fill-rule:evenodd;stroke:none"
         d="m 5405.54,5012.48 v 0 L 5037.71,4921 v -12.15 l 367.83,91.49 v 12.14" /><path
         id="path200"
         style="fill:#d2d3d4;fill-opacity:1;fill-rule:evenodd;stroke:none"
         d="m 5405.54,4988.21 v 0 l -367.83,-91.51 v -12.12 l 367.83,92.42 v 11.21" /><path
         id="path202"
         style="fill:#d2d3d4;fill-opacity:1;fill-rule:evenodd;stroke:none"
         d="m 5405.54,4964.86 v 0 l -367.83,-92.42 v -11.21 l 367.83,91.51 v 12.12" /><path
         id="path204"
         style="fill:#d2d3d4;fill-opacity:1;fill-rule:evenodd;stroke:none"
         d="m 5405.54,4940.6 v 0 l -367.83,-92.43 v -11.2 l 367.83,91.49 v 12.14" /><path
         id="path206"
         style="fill:#d2d3d4;fill-opacity:1;fill-rule:evenodd;stroke:none"
         d="m 5405.54,4916.31 v 0 l -126.95,-31.73 v -12.14 l 126.95,31.74 v 12.13" /><path
         id="path208"
         style="fill:#d2d3d4;fill-opacity:1;fill-rule:evenodd;stroke:none"
         d="m 5405.54,5170.26 v 0 l -367.83,-91.5 v -12.13 l 367.83,91.49 v 12.14" /><path
         id="path210"
         style="fill:#d2d3d4;fill-opacity:1;fill-rule:evenodd;stroke:none"
         d="m 5405.54,5146 v 0 l -367.83,-91.51 v -12.13 l 367.83,91.5 V 5146" /><path
         id="path212"
         style="fill:#d2d3d4;fill-opacity:1;fill-rule:evenodd;stroke:none"
         d="m 5405.54,5121.71 v 0 l -367.83,-91.49 v -12.14 l 367.83,92.44 v 11.19" /><path
         id="path214"
         style="fill:#d2d3d4;fill-opacity:1;fill-rule:evenodd;stroke:none"
         d="m 5405.54,5098.37 v 0 l -367.83,-92.42 v -12.14 l 367.83,92.42 v 12.14" /><path
         id="path216"
         style="fill:#d2d3d4;fill-opacity:1;fill-rule:evenodd;stroke:none"
         d="m 5405.54,5074.11 v 0 l -161.49,-40.16 v -12.12 l 161.49,40.14 v 12.14" /><path
         id="path218"
         style="fill:#d2d3d4;fill-opacity:1;fill-rule:evenodd;stroke:none"
         d="m 5405.54,5194.53 v 0 l -367.83,-92.43 v -11.2 l 367.83,91.5 v 12.13" /><path
         id="path220"
         style="fill:#d2d3d4;fill-opacity:1;fill-rule:evenodd;stroke:none"
         d="m 5405.54,5036.75 -367.83,-91.49 v -12.13 l 367.83,91.49 v 12.13" /><path
         id="path222"
         style="fill:#d2d3d4;fill-opacity:1;fill-rule:evenodd;stroke:none"
         d="m 5405.54,4861.23 v 0 l -367.83,-91.49 v -12.14 l 367.83,91.51 v 12.12" /><path
         id="path224"
         style="fill:#d2d3d4;fill-opacity:1;fill-rule:evenodd;stroke:none"
         d="m 5405.54,4836.97 v 0 l -367.83,-91.5 v -12.14 l 367.83,91.49 v 12.15" /><path
         id="path226"
         style="fill:#d2d3d4;fill-opacity:1;fill-rule:evenodd;stroke:none"
         d="m 5405.54,4812.7 v 0 l -367.83,-91.51 v -12.13 l 367.83,91.5 v 12.14" /><path
         id="path228"
         style="fill:#d2d3d4;fill-opacity:1;fill-rule:evenodd;stroke:none"
         d="m 5405.54,4788.42 v 0 l -367.83,-91.5 v -12.14 l 367.83,92.42 v 11.22" /><path
         id="path230"
         style="fill:#d2d3d4;fill-opacity:1;fill-rule:evenodd;stroke:none"
         d="m 5405.54,4765.08 v 0 l -161.49,-40.14 v -12.14 l 161.49,40.14 v 12.14" /><path
         id="path232"
         style="fill:#d2d3d4;fill-opacity:1;fill-rule:evenodd;stroke:none"
         d="m 5405.54,4885.52 v 0 l -367.83,-92.44 v -11.19 l 367.83,91.48 v 12.15" /><path
         id="path234"
         style="fill:#6dcdb3;fill-opacity:1;fill-rule:evenodd;stroke:none"
         d="m 1859.72,3041.66 c 0,438.78 -358.49,798.2 -798.22,798.2 -439.738,0 -798.234,-359.42 -798.234,-798.2 0,-439.74 358.496,-798.23 798.234,-798.23 439.73,0 798.22,358.49 798.22,798.23 v 0" /><path
         id="path236"
         style="fill:#30445b;fill-opacity:1;fill-rule:evenodd;stroke:none"
         d="M 534.008,3371.2 H 1588.98 V 2680.33 H 534.008 v 690.87" /><path
         id="path238"
         style="fill:#e9ecf1;fill-opacity:1;fill-rule:evenodd;stroke:none"
         d="m 1567.5,3371.2 h -506 v -662.85 h 506 v 662.85" /><path
         id="path240"
         style="fill:#ffffff;fill-opacity:1;fill-rule:evenodd;stroke:none"
         d="m 1549.78,3371.2 c -162.46,0 -318.37,69.09 -488.28,0 v -620.84 h 488.28 v 620.84" /><path
         id="path242"
         style="fill:#e9ecf1;fill-opacity:1;fill-rule:evenodd;stroke:none"
         d="M 554.547,3371.2 H 1061.5 V 2708.35 H 554.547 v 662.85" /><path
         id="path244"
         style="fill:#ffffff;fill-opacity:1;fill-rule:evenodd;stroke:none"
         d="m 572.281,3371.2 c 162.453,0 398.653,68.17 489.219,0 V 2750.36 H 572.281 v 620.84" /><path
         id="path246"
         style="fill:#eff4f4;fill-opacity:1;fill-rule:evenodd;stroke:none"
         d="m 1053.1,3371.2 h 15.86 v -620.84 h -15.86 v 620.84" /><path
         id="path248"
         style="fill:#e2e3e4;fill-opacity:1;fill-rule:evenodd;stroke:none"
         d="m 614.301,3071.51 v 0 h 377.183 v -12.13 H 614.301 Z m 0,-24.24 v 0 H 991.484 V 3035.1 H 614.301 Z m 0,-25.23 v 0 h 377.183 v -12.12 H 614.301 Z m 0,-24.28 v 0 h 377.183 v -12.13 H 614.301 Z m 0,-25.19 v 0 h 129.762 v -12.16 H 614.301 Z m 0,261.39 v 0 h 377.183 v -13.05 H 614.301 Z m 0,-25.2 v 0 h 377.183 v -12.13 H 614.301 Z m 0,-24.25 v 0 h 377.183 v -13.1 H 614.301 Z m 0,-25.22 v 0 h 377.183 v -12.13 H 614.301 Z m 0,-24.29 v 0 h 165.242 v -13.06 H 614.301 Z m 0,123.25 v 0 h 377.183 v -12.16 H 614.301 Z m 502.279,-186.74 v 0 h 378.1 v -12.13 h -378.1 z m 0,-24.24 v 0 h 378.1 v -12.17 h -378.1 z m 0,-25.23 v 0 h 378.1 v -12.12 h -378.1 z m 0,-24.28 v 0 h 378.1 v -12.13 h -378.1 z m 0,-25.19 v 0 h 129.77 v -12.16 h -129.77 z m 0,261.39 v 0 h 378.1 v -13.05 h -378.1 z m 0,-25.2 v 0 h 165.25 v -12.13 h -165.25 z m 0,-24.25 v 0 h 378.1 v -13.1 h -378.1 z m 0,-25.22 v 0 h 378.1 v -12.13 h -378.1 z m 0,-24.29 v 0 h 165.25 v -13.06 h -165.25 z m 0,123.25 v 0 h 378.1 v -12.16 h -378.1 z m 0,-161.52 v 0 h 378.1 v -12.13 h -378.1 z m -502.279,0 H 991.484 V 3084.6 H 614.301 v 12.13" /><path
         id="path250"
         style="fill:#f03e38;fill-opacity:1;fill-rule:evenodd;stroke:none"
         d="m 995.215,2770.92 h -43.887 v -108.31 l 43.887,36.41 42.935,-36.41 v 108.31 h -42.935" /><path
         id="path252"
         style="fill:#fbcd40;fill-opacity:1;fill-rule:evenodd;stroke:none"
         d="m 7705.94,6876.89 c 0,-423.85 -343.57,-767.43 -767.42,-767.43 -423.85,0 -767.42,343.58 -767.42,767.43 0,423.85 343.57,766.49 767.42,766.49 423.85,0 767.42,-342.64 767.42,-766.49 v 0" /><path
         id="path254"
         style="fill:#f2564e;fill-opacity:1;fill-rule:evenodd;stroke:none"
         d="m 7507.1,6635.08 h -113 l 24.31,95.22 h 64.41 l 24.28,-95.22" /><path
         id="path256"
         style="fill:#f2564e;fill-opacity:1;fill-rule:evenodd;stroke:none"
         d="m 7439.88,6698.57 h 22.39 v 283.81 h -22.39 v -283.81" /><path
         id="path258"
         style="fill:#30445b;fill-opacity:1;fill-rule:evenodd;stroke:none"
         d="m 7495.88,6730.3 c 0,25.22 -19.59,45.75 -44.81,45.75 -25.22,0 -44.8,-20.53 -44.8,-45.75 0,-24.26 19.58,-44.8 44.8,-44.8 25.22,0 44.81,20.54 44.81,44.8 v 0" /><path
         id="path260"
         style="fill:#30445b;fill-opacity:1;fill-rule:evenodd;stroke:none"
         d="m 6291.55,6989.84 646.97,246.49 647.94,-246.49 -329.58,-126.03 v 98.97 c 0,72.82 -165.24,106.43 -318.36,106.43 -153.1,0 -318.35,-33.61 -318.35,-106.43 v -98.97 l -328.62,126.03" /><path
         id="path262"
         style="fill:#29364a;fill-opacity:1;fill-rule:evenodd;stroke:none"
         d="m 6863.83,6840.48 c 23.36,1.87 48.57,2.8 74.69,2.8 27.08,0 52.29,-0.93 74.68,-2.8 88.71,-4.66 194.21,-19.61 252.09,-51.35 v 174.59 c 0,74.67 -168.98,109.22 -326.77,109.22 -156.83,0 -325.81,-34.55 -325.81,-109.22 v -174.59 c 57.89,31.74 162.45,46.69 251.12,51.35 v 0" /><path
         id="path264"
         style="fill:#ffffff;fill-opacity:1;fill-rule:evenodd;stroke:none"
         d="m 7255.01,6719.11 c -1.88,4.66 -5.61,7.46 -10.26,6.53 -202.6,-13.06 -408.93,-13.06 -611.53,0 -4.66,0.93 -9.33,-1.87 -10.25,-6.53 -7.47,-22.41 -11.21,-45.76 -11.21,-67.22 0,-5.61 4.67,-10.28 10.27,-10.28 h 633.91 c 5.62,0 10.29,4.67 10.29,10.28 0,19.6 -0.94,42 -11.22,67.22 v 0" /><path
         id="path266"
         style="fill:#e9ecf1;fill-opacity:1;fill-rule:evenodd;stroke:none"
         d="m 7276.49,6652.82 c 0,5.6 -4.66,10.28 -10.26,10.28 h -274.48 c -5.6,0 -10.27,-4.68 -10.27,-11.21 h -84.98 c 0,6.53 -4.65,11.21 -10.24,11.21 h -274.5 c -5.59,0 -10.25,-4.68 -10.25,-10.28 -0.93,-1.86 -4.69,-58.81 21.46,-111.09 1.85,-3.74 5.59,-5.62 9.35,-5.62 0.9,0 0.9,0 0.9,0 82.19,5.62 165.26,8.41 246.51,9.35 l 48.52,0.93 70.03,-0.93 c 81.21,-0.94 164.32,-3.73 246.47,-9.35 4.65,-0.93 9.32,2.82 10.26,7.48 26.14,52.29 21.48,107.37 21.48,109.23 v 0" /><path
         id="path268"
         style="fill:#f03e38;fill-opacity:1;fill-rule:evenodd;stroke:none"
         d="m 6937.58,6598.67 23.36,-10.28 -50.43,-114.82 -15.86,28 -30.82,-7.46 50.44,114.84 23.31,-10.28" /><path
         id="path270"
         style="fill:#f03e38;fill-opacity:1;fill-rule:evenodd;stroke:none"
         d="m 6951.6,6584.66 -22.4,-13.07 61.61,-108.29 13.07,28.01 30.81,-3.73 -61.62,109.23 -21.47,-12.15" /><path
         id="path272"
         style="fill:#f2564e;fill-opacity:1;fill-rule:evenodd;stroke:none"
         d="m 7030.02,6628.55 v 0 c 4.67,5.6 4.67,14.94 -0.93,19.6 v 0 c -3.74,3.74 -5.58,9.34 -3.74,14.95 v 0 c 2.81,6.52 -0.93,14 -7.46,16.8 v 0 c -5.62,1.87 -9.35,6.53 -9.35,12.13 v 0 c -0.93,7.48 -7.47,13.07 -14.93,13.07 v 0 c -5.59,0 -10.26,2.8 -13.08,7.48 v 0 c -2.81,7.46 -11.2,10.27 -17.74,6.53 v 0 c -4.66,-1.87 -11.19,-0.94 -14.92,1.87 v 0 c -5.61,5.59 -14.01,4.66 -18.67,-0.94 v 0 c -3.74,-3.73 -9.35,-5.6 -14.93,-2.8 v 0 c -7.49,1.87 -14.95,-1.86 -16.83,-8.41 v 0 c -1.86,-5.59 -7.46,-9.32 -12.13,-9.32 v 0 c -7.46,0 -14.01,-6.55 -13.08,-14.01 v 0 c 0,-6.53 -2.8,-11.21 -8.4,-13.07 v 0 c -6.53,-3.74 -9.32,-11.19 -6.53,-17.74 v 0 c 2.81,-5.6 1.87,-11.2 -1.86,-14.94 v 0 c -4.67,-5.6 -4.67,-14.95 0.94,-19.61 v 0 c 3.73,-3.73 5.58,-9.32 3.73,-14.94 v 0 c -2.81,-6.53 0.93,-13.99 8.39,-16.81 v 0 c 4.65,-1.86 8.38,-6.52 9.35,-12.12 v 0 c 0,-7.47 6.53,-13.08 14,-13.08 v 0 c 5.59,0 10.26,-2.79 13.05,-7.47 v 0 c 2.81,-7.46 11.23,-10.26 17.77,-6.53 v 0 c 5.58,1.86 11.19,0.93 14.91,-1.87 v 0 c 5.6,-5.59 14.02,-4.66 18.69,0.94 v 0 c 3.73,3.73 9.33,5.59 14.92,2.79 v 0 c 7.46,-1.86 14.96,1.87 17.76,8.42 v 0 c 0.93,5.59 6.54,9.33 11.2,9.33 v 0 c 8.39,0 13.98,6.54 13.98,14 v 0 c -0.93,6.53 2.8,11.21 7.5,13.08 v 0 c 7.46,3.73 9.33,11.2 6.53,17.73 v 0 c -2.81,4.66 -1.87,11.19 1.86,14.94 v 0" /><path
         id="path274"
         style="fill:#ffffff;fill-opacity:1;fill-rule:evenodd;stroke:none"
         d="m 7005.73,6636.95 c -1.85,35.48 -31.74,62.56 -66.29,60.69 -35.47,-1.86 -62.56,-31.75 -60.65,-66.29 1.86,-35.47 31.72,-62.55 67.19,-60.69 34.55,1.88 61.63,31.75 59.75,66.29 v 0" /><path
         id="path276"
         style="fill:#f2564e;fill-opacity:1;fill-rule:evenodd;stroke:none"
         d="m 6998.28,6636.95 c -1.86,30.81 -28.02,54.14 -58.84,53.21 -30.81,-1.86 -54.13,-28 -53.18,-58.81 1.87,-30.81 28.01,-54.15 58.79,-53.22 30.81,1.87 55.1,28 53.23,58.82 v 0" /><path
         id="path278"
         style="fill:#96ddf8;fill-opacity:1;fill-rule:evenodd;stroke:none"
         d="m 5747.24,3041.66 c 0,-423.89 -343.57,-767.42 -767.42,-767.42 -423.85,0 -767.42,343.53 -767.42,767.42 0,422.92 343.57,766.46 767.42,766.46 423.85,0 767.42,-343.54 767.42,-766.46 v 0" /><path
         id="path280"
         style="fill:#fbcd40;fill-opacity:1;fill-rule:evenodd;stroke:none"
         d="m 5425.17,3136.86 h -84.98 l 17.74,71.9 h 48.54 l 18.7,-71.9" /><path
         id="path282"
         style="fill:#fbcd40;fill-opacity:1;fill-rule:evenodd;stroke:none"
         d="m 5374.73,3184.51 h 16.82 v 214.71 h -16.82 v -214.71" /><path
         id="path284"
         style="fill:#f7ad34;fill-opacity:1;fill-rule:evenodd;stroke:none"
         d="m 5416.77,3208.76 c 0,18.68 -14.96,34.54 -33.63,34.54 -18.68,0 -34.53,-15.86 -34.53,-34.54 0,-18.66 15.85,-33.62 34.53,-33.62 18.67,0 33.63,14.96 33.63,33.62 v 0" /><path
         id="path286"
         style="fill:#30445b;fill-opacity:1;fill-rule:evenodd;stroke:none"
         d="m 4490.62,3414.14 489.2,186.75 488.28,-186.75 -488.28,-186.7 -489.2,186.7" /><path
         id="path288"
         style="fill:#6992d3;fill-opacity:1;fill-rule:evenodd;stroke:none"
         d="m 5369.14,2975.37 c 0,210.06 -171.8,381.86 -382.78,381.86 -211,0 -382.79,-171.8 -382.79,-381.86 0,-210.99 171.79,-382.77 382.79,-382.77 210.98,0 382.78,171.78 382.78,382.77 v 0" /><path
         id="path290"
         style="fill:#a0d240;fill-opacity:1;fill-rule:evenodd;stroke:none"
         d="m 5053.57,2679.39 c -5.58,-5.59 -12.12,-6.51 -19.59,-5.59 -4.68,0.94 -8.42,2.81 -12.15,2.81 -5.59,-1.87 -8.4,-5.6 -12.12,-9.34 -3.74,-5.59 -7.47,-12.15 -13.06,-16.81 -0.95,-1.87 -2.8,-4.67 -2.8,-6.53 0,-5.6 6.52,-6.53 11.2,-6.53 4.66,0.93 8.38,3.73 13.05,4.67 4.66,1.86 9.33,0 14.02,1.86 6.52,0.93 12.13,6.53 15.87,10.26 3.72,3.76 6.51,7.49 8.38,12.16 3.74,4.66 1.86,11.19 -2.8,13.04 v 0" /><path
         id="path292"
         style="fill:#a0d240;fill-opacity:1;fill-rule:evenodd;stroke:none"
         d="m 4604.5,2945.5 c 0.94,-15.9 3.73,-32.69 7.49,-48.58 5.61,0.93 13.07,1.88 17.73,-2.79 0.93,-2.8 3.74,-4.67 6.53,-4.67 0.94,0 2.8,0.93 3.74,1.87 2.78,5.59 5.59,12.16 5.59,19.62 9.35,-9.34 18.69,-19.62 28.01,-28.95 14.96,5.61 19.62,27.08 34.55,31.75 15.88,3.73 31.74,-14.02 46.7,-8.4 11.2,3.73 16.78,17.73 26.12,24.25 10.28,8.44 27.09,6.56 42.03,3.73 2.8,19.62 -4.69,39.24 -17.75,53.24 -8.39,5.59 -16.78,10.26 -14,17.73 1.88,6.55 9.35,9.34 14,14.94 5.59,7.46 -1.87,18.65 -6.53,28.03 -5.59,8.39 -10.25,21.44 0,27.04 -7.47,8.42 -11.19,18.68 -14.96,28.01 -5.6,9.32 -13.98,19.62 -24.25,17.76 -8.39,0 -14.95,-6.54 -22.42,-10.29 -9.32,-5.6 -19.59,-7.47 -28.94,-11.2 -10.27,-3.73 -20.52,-11.2 -22.39,-21.49 -0.93,-11.19 5.6,-21.44 0,-31.71 -4.67,-10.29 -22.41,-15.89 -18.69,-26.15 1.87,-2.79 2.8,-5.6 4.68,-7.46 3.73,-7.48 -5.61,-17.75 -12.13,-22.41 z m 301.58,404.23 c -80.29,-17.73 -151.24,-59.72 -204.47,-118.56 5.6,-15.89 16.83,-30.81 21.49,-47.61 1.86,-8.42 1.86,-15.88 4.66,-24.27 2.8,-8.4 8.39,-14.96 16.79,-15.9 6.56,7.5 7.49,19.62 0.93,28.02 5.63,2.8 11.22,3.73 14.02,9.32 2.8,4.7 2.8,12.16 -2.8,14.03 -2.79,0.93 -7.49,0 -11.22,0 -10.27,0 -17.72,12.12 -22.38,22.42 21.45,8.4 46.67,0 58.79,-18.69 -2.8,2.8 -3.74,6.53 -6.53,9.33 17.76,5.6 36.41,8.43 54.16,6.53 5.6,0 10.27,-0.93 14.93,1.9 6.53,2.79 10.26,10.25 17.75,10.25 4.67,0 9.33,-1.86 14.92,-3.74 19.62,-3.72 40.15,21.47 56.02,11.2 1.88,9.34 -12.15,15.86 -18.68,10.27 -0.93,1.86 -3.72,2.8 -5.59,4.66 7.46,10.3 23.35,6.56 32.68,-1.86 9.32,-8.4 15.85,-20.53 27.09,-25.18 8.38,0 12.12,10.25 13.05,18.65 0,8.39 -0.93,17.75 4.67,24.29 0.93,2.79 3.72,5.59 5.58,8.37 2.84,10.28 -13.98,14.97 -17.71,24.29 -2.8,7.46 0.93,15.87 3.73,24.29 2.8,7.47 1.86,18.65 -6.53,19.59 -11.2,-15.85 -41.07,-13.07 -47.63,-30.81 -2.81,-9.33 0,-21.46 -9.34,-25.2 -6.53,-2.81 -13.05,4.69 -14.91,13.07 0,8.4 2.79,14.93 2.79,23.35 0,3.74 -0.93,6.52 -0.93,10.26 0,5.6 3.73,12.13 4.67,17.73 z m 334.23,-88.69 c -41.1,36.41 -90.56,64.44 -144.73,81.23 -3.72,-9.33 -9.33,-17.74 -12.12,-26.17 -3.73,-13.04 -5.61,-29.87 -14.93,-40.12 -3.74,-4.66 -8.42,-7.47 -10.3,-12.13 -7.45,-11.19 -1.86,-26.15 9.37,-31.75 10.25,-5.6 25.17,-0.93 33.6,6.53 2.81,2.8 5.61,4.67 8.41,4.67 3.72,0 7.46,-4.67 10.25,-8.4 14.96,-18.65 41.08,-29.88 65.35,-24.28 0.94,8.42 -11.19,12.14 -11.19,20.55 0,6.53 9.33,9.33 15.86,6.53 7.46,-2.8 11.19,-9.32 16.82,-12.12 6.53,-2.82 15.86,-0.94 21.46,2.8 5.6,5.58 8.39,13.05 5.6,20.51 -1.87,2.84 -2.8,6.56 -1.87,9.36 0.93,2.79 5.63,2.79 8.42,2.79 z m 128.83,-285.67 c 0,1.87 0,3.73 0,4.67 -4.68,1.86 -9.35,3.72 -13.07,6.53 -10.26,6.53 -19.62,20.54 -18.68,33.61 0,5.59 1.85,9.32 1.85,14.92 -1.85,8.43 -7.45,13.09 -11.18,18.69 -11.2,11.19 -21.49,20.52 -32.68,29.88 -13.06,11.19 -31.74,18.65 -43.87,8.4 -2.8,-2.81 -4.66,-5.6 -7.46,-8.4 -6.53,-3.73 -14.97,-0.94 -21.49,0.93 -6.53,2.79 -17.73,1.87 -18.68,-6.53 -1.87,-9.36 12.15,-13.09 14.96,-22.41 0.93,-2.81 0,-5.61 0.93,-8.39 1.86,-14.04 21.47,-18.7 29.87,-8.44 5.6,8.44 6.53,21.49 15.85,21.49 10.3,-3.74 16.83,-14.93 16.83,-24.28 -2.8,7.49 -14.02,4.66 -17.75,-0.94 -3.74,-5.6 -5.61,-13.99 -9.33,-17.72 -9.33,-9.32 -26.16,-6.53 -38.28,-0.93 -27.08,9.32 -52.29,18.65 -79.34,28 -2.8,0.94 -6.57,2.82 -9.36,0.94 -4.68,-0.94 -5.59,-6.56 -9.33,-9.35 -5.6,-3.74 -14,-2.81 -19.58,1.85 -4.7,3.77 -10.3,7.5 -16.83,10.3 -7.46,2.81 -14.92,-0.92 -16.79,-7.49 0,-2.81 0,-5.6 1.87,-8.4 12.13,-23.32 42.01,-27.08 61.6,-42.01 1.85,9.34 14.94,11.19 23.35,6.54 8.39,-4.67 10.25,-14.93 12.12,-24.26 0.94,-9.35 0.94,-18.68 6.56,-27.07 6.53,-12.17 24.26,-16.83 36.42,-12.17 8.38,4.71 17.71,11.23 24.24,5.63 7.49,-5.63 1.87,-15.88 4.66,-24.28 0.97,-2.8 3.76,-5.6 3.76,-9.33 0.93,-6.55 -9.35,-11.22 -15.89,-8.43 -7.46,2.81 -11.19,9.36 -16.77,14.96 -5.64,5.6 -12.16,11.2 -18.69,8.39 -8.4,0.93 -14.01,-9.32 -11.2,-17.75 2.8,-8.39 11.2,-12.13 17.73,-15.85 -0.95,-7.46 -7.47,-9.34 -14.93,-9.34 -6.54,0 -12.12,1.88 -17.76,4.67 -15.86,8.39 -34.54,20.52 -36.4,38.27 0,5.6 1.86,10.28 0,17.77 -0.94,16.78 -14.94,30.77 -28.01,42 -23.33,12.12 -45.74,25.18 -71.91,22.38 -9.31,-0.94 -18.64,-5.59 -27.04,-9.32 -15.89,-8.39 -31.74,-18.66 -45.76,-30.81 -9.34,-9.34 -18.66,-20.52 -20.54,-33.62 -0.92,-17.72 12.14,-32.68 26.16,-43.88 13.05,-10.25 29.85,-21.47 36.4,-37.34 -12.15,-4.66 -14.01,-20.55 -17.74,-32.66 -9.32,-27.09 -44.82,-38.29 -59.76,-63.5 -7.46,-14 -9.33,-30.81 -18.65,-42.94 -3.74,-5.6 -8.4,-10.26 -10.3,-16.81 -8.39,-17.74 9.36,-39.22 28.95,-42.02 20.55,-2.79 39.2,8.43 56.03,20.56 3.73,2.8 7.46,6.53 13.06,8.4 4.65,0.91 8.41,0.91 12.15,0.91 9.33,0 19.58,1.88 28.95,1.88 -4.69,0 -5.63,6.53 -2.83,9.33 2.83,2.79 6.56,3.76 9.36,6.56 13.07,6.53 21.45,20.52 27.04,33.61 6.57,-13.09 27.09,-10.29 42.05,-5.63 13.06,5.63 27.97,10.29 42.01,14.96 -9.34,-0.93 -19.62,7.46 -23.35,16.78 -2.81,9.36 -0.93,19.62 2.79,29.89 3.74,7.46 9.36,15.89 12.16,25.21 2.8,9.33 2.8,18.65 5.59,27.08 2.81,9.33 6.54,18.66 15.86,21.46 3.73,-18.66 1.87,-37.35 -6.52,-55.06 -6.53,-14.03 -15.87,-29.88 -6.53,-41.08 3.73,-4.69 10.25,-6.56 16.78,-7.5 16.82,-2.79 32.69,-5.59 47.63,-8.39 -5.6,20.55 -8.42,42 -8.42,62.55 0,4.66 1.87,10.27 5.64,12.13 6.52,-24.24 16.77,-47.59 31.73,-68.15 1.86,-2.79 3.74,-6.53 4.67,-10.26 0,-4.66 0,-7.47 -0.93,-11.2 -5.6,-17.74 -14.96,-32.67 -15.88,-49.49 0,-2.8 0,-4.68 0,-6.53 85.9,70.02 141.9,177.37 141.9,297.83 z m -223.12,210.99 c -5.6,-2.8 -4.67,-9.35 -2.81,-14.95 v 2.8 c 0.93,-6.53 7.46,-13.06 15.86,-13.06 6.54,-1.86 14.95,1.86 18.69,9.33 -7.47,4.66 -15.89,9.31 -24.28,14.95 -0.93,0 -4.67,1.86 -7.46,0.93 v 0" /><path
         id="path294"
         style="fill:#29364a;fill-opacity:1;fill-rule:evenodd;stroke:none"
         d="m 4924.76,3303.98 c 70.02,4.67 243.68,1.88 295.01,-26.14 v 116.72 c 0,55.06 -124.19,79.36 -239.95,79.36 -115.76,0 -240.86,-24.3 -240.86,-79.36 V 3265.7 c 42.93,23.36 120.44,34.55 185.8,38.28 v 0" /><path
         id="path296"
         style="fill:#ffffff;fill-opacity:1;fill-rule:evenodd;stroke:none"
         d="m 5190.82,2643.93 c 0.92,4.66 -2.8,9.33 -6.52,11.19 -189.52,73.78 -375.33,161.53 -552.72,259.56 -4.66,2.8 -10.24,1.86 -13.05,-1.87 -15.88,-17.74 -29.89,-36.39 -38.28,-56.02 -2.79,-4.66 0,-11.19 4.67,-14 l 573.22,-268.87 c 5.59,-2.81 12.15,0 14.96,4.65 7.46,17.76 15.86,38.29 17.72,65.36 v 0" /><path
         id="path298"
         style="fill:#e9ecf1;fill-opacity:1;fill-rule:evenodd;stroke:none"
         d="m 5182.42,2574.83 c 1.88,5.61 -0.93,11.21 -5.59,14.03 l -248.34,115.76 c -4.69,2.8 -11.22,0.93 -14.03,-4.66 l -76.54,36.4 c 2.79,4.68 0,11.2 -4.67,14 l -248.33,116.72 c -5.59,1.87 -11.22,0 -14.02,-4.7 -0.93,-1.86 -28.91,-51.34 -27.05,-110.15 0,-3.74 2.8,-7.47 5.58,-9.33 0.95,0 0.95,0 0.95,0 76.54,-29.89 153.1,-62.57 226.86,-96.17 l 44.82,-20.53 62.52,-29.87 c 73.76,-35.48 147.54,-73.75 218.5,-112.97 4.65,-2.81 10.25,-1.89 13.99,1.87 44.8,36.41 64.42,87.75 65.35,89.6 v 0" /><path
         id="path300"
         style="fill:#f03e38;fill-opacity:1;fill-rule:evenodd;stroke:none"
         d="m 4851.9,2670.08 16.83,-19.62 -93.37,-82.14 -2.8,31.73 -30.81,6.53 94.3,82.15 15.85,-18.65" /><path
         id="path302"
         style="fill:#f03e38;fill-opacity:1;fill-rule:evenodd;stroke:none"
         d="m 4859.4,2651.39 -26.15,-1.87 9.33,-125.08 24.29,20.52 26.15,-16.79 -9.37,125.09 -24.25,-1.87" /><path
         id="path304"
         style="fill:#f2564e;fill-opacity:1;fill-rule:evenodd;stroke:none"
         d="m 4949,2657.95 v 0 c 6.55,2.81 10.3,11.19 7.47,17.72 v 0 c -1.86,5.6 -1.86,11.19 2.83,14.93 v 0 c 5.6,5.63 4.66,14.02 0,18.69 v 0 c -3.75,4.66 -5.62,10.26 -2.83,14.92 v 0 c 2.83,7.49 -0.92,15.89 -8.39,18.69 v 0 c -4.66,1.86 -8.4,6.51 -7.46,12.12 v 0 c 0,7.46 -6.53,14.02 -14,13.09 v 0 c -5.63,0.93 -10.29,3.73 -12.16,8.39 v 0 c -3.72,7.47 -11.19,10.27 -17.72,7.47 v 0 c -5.59,-1.86 -11.22,-0.93 -14.95,2.8 v 0 c -5.59,5.58 -13.99,5.58 -19.59,0 v 0 c -3.73,-3.73 -9.36,-4.66 -14.02,-2.8 v 0 c -7.47,2.8 -15.86,-0.93 -18.66,-7.47 v 0 c -1.87,-5.58 -6.53,-8.39 -12.16,-8.39 v 0 c -8.39,0 -13.99,-6.56 -13.99,-14.02 v 0 c 0,-5.6 -2.78,-10.26 -7.45,-12.13 v 0 c -7.46,-2.79 -10.27,-11.19 -7.46,-17.75 v 0 c 1.85,-4.66 0.92,-11.2 -2.81,-14.92 v 0 c -5.63,-5.6 -5.63,-14 0,-18.69 v 0 c 3.73,-3.74 4.66,-10.27 2.81,-14.93 v 0 c -2.81,-7.46 0.92,-14.91 7.46,-17.72 v 0 c 5.59,-2.83 8.39,-7.49 8.39,-13.09 v 0 c 0,-7.46 6.52,-13.06 13.99,-13.06 v 0 c 4.69,-0.94 10.29,-3.73 12.16,-8.39 v 0 c 2.79,-6.55 11.19,-10.29 17.72,-7.5 v 0 c 4.66,1.86 11.22,0.95 14.96,-2.79 v 0 c 5.59,-5.6 13.98,-5.6 18.65,0 v 0 c 3.73,3.74 10.29,4.65 14.95,2.79 v 0 c 7.47,-2.79 14.93,0.95 17.72,7.5 v 0 c 2.81,5.6 7.47,8.39 13.1,8.39 v 0 c 7.46,0 13.06,6.53 13.06,13.99 v 0 c 0,5.6 3.72,10.25 8.38,12.16 v 0" /><path
         id="path306"
         style="fill:#ffffff;fill-opacity:1;fill-rule:evenodd;stroke:none"
         d="m 4930.36,2675.67 c 13.06,32.68 -1.87,70.02 -34.55,83.09 -32.67,13.08 -69.08,-1.88 -83.1,-34.55 -13.07,-32.67 2.78,-69.09 34.53,-83.08 32.68,-13.06 70.03,2.8 83.12,34.54 v 0" /><path
         id="path308"
         style="fill:#f2564e;fill-opacity:1;fill-rule:evenodd;stroke:none"
         d="m 4923.8,2679.39 c 11.22,28.03 -1.87,60.71 -30.78,72.84 -28.96,11.22 -61.63,-1.87 -72.84,-30.82 -12.13,-28.92 1.88,-61.6 30.8,-72.82 28.01,-12.13 60.69,1.87 72.82,30.8 v 0" /><path
         id="path310"
         style="fill:#30445b;fill-opacity:1;fill-rule:evenodd;stroke:none"
         d="m 7736.75,4959.27 c 0,439.72 -358.5,798.23 -798.23,798.23 -439.7,0 -798.24,-358.51 -798.24,-798.23 0,-439.72 358.54,-798.24 798.24,-798.24 439.73,0 798.23,358.52 798.23,798.24 v 0" /><path
         id="path312"
         style="fill:#f7ad34;fill-opacity:1;fill-rule:evenodd;stroke:none"
         d="m 6795.68,4728.67 h 287.54 c -44.81,50.41 -67.18,115.76 -78.41,172.72 -14,65.34 -12.12,117.62 -12.12,117.62 h -107.38 c 0,0 1.88,-52.28 -11.21,-117.62 -10.27,-56.96 -32.68,-122.31 -78.42,-172.72 v 0" /><path
         id="path314"
         style="fill:#f7ad34;fill-opacity:1;fill-rule:evenodd;stroke:none"
         d="m 6782.63,4986.33 c -2.82,0 -5.6,0 -8.4,1.88 l -117.66,60.68 c -52.27,27.08 -90.53,75.62 -105.5,131.64 l -33.6,132.57 c -5.6,22.42 -0.94,46.68 14.01,65.35 14.94,18.67 36.41,29.88 60.67,29.88 h 190.48 c 10.25,0 18.65,-8.41 18.65,-19.6 0,-10.28 -8.4,-18.69 -18.65,-18.69 h -190.48 c -12.13,0 -23.32,-5.6 -30.81,-14.92 -7.46,-9.34 -10.27,-21.48 -7.46,-32.68 l 33.6,-132.58 c 12.16,-45.73 42.94,-84.96 85.91,-107.36 l 118.55,-60.67 c 8.41,-4.69 12.12,-16.81 7.46,-25.22 -2.79,-6.53 -9.32,-10.28 -16.77,-10.28 v 0" /><path
         id="path316"
         style="fill:#f7ad34;fill-opacity:1;fill-rule:evenodd;stroke:none"
         d="m 7094.44,4986.33 c -6.52,0 -13.09,3.75 -16.81,10.28 -4.67,8.41 -0.94,20.53 8.39,25.22 l 117.65,60.67 c 42.94,22.4 74.69,61.63 85.88,107.36 l 33.6,132.58 c 2.82,11.2 0.94,23.34 -6.51,32.68 -7.47,9.32 -18.66,14.92 -30.82,14.92 h -191.38 c -10.29,0 -18.68,8.41 -18.68,18.69 0,11.19 8.39,19.6 18.68,19.6 h 191.38 c 23.35,0 45.77,-11.21 60.68,-29.88 14.01,-18.67 19.59,-42.93 13.06,-65.35 l -33.59,-132.57 c -14.01,-56.02 -52.27,-104.56 -104.58,-131.64 l -117.61,-60.68 c -2.81,-1.88 -6.52,-1.88 -9.34,-1.88 v 0" /><path
         id="path318"
         style="fill:#fbcd40;fill-opacity:1;fill-rule:evenodd;stroke:none"
         d="m 6938.52,4880.84 v 0 c -126.95,0 -230.58,102.7 -231.51,229.68 l -2.81,358.49 h 235.24 233.42 l -2.79,-358.49 c 0,-1.87 0,-3.75 0,-5.62 v -0.93 c 0,-1.87 0,-3.74 0,-5.6 v 0 c 0,-1.86 0,-3.73 -0.94,-5.59 v 0 c 0,-1.88 0,-3.75 0,-5.61 v 0 c 0,-1.87 -0.93,-3.73 -0.93,-5.6 0,-3.73 -0.94,-7.46 -1.87,-11.21 v -0.93 0 c 0,-1.87 -0.93,-3.73 -0.93,-5.6 -0.93,-5.6 -2.8,-10.28 -3.73,-15.87 h -0.94 c 0,-1.87 -0.94,-3.73 -0.94,-5.6 v 0 c -29.87,-94.3 -117.64,-161.52 -221.27,-161.52 v 0" /><path
         id="path320"
         style="fill:#fae16c;fill-opacity:1;fill-rule:evenodd;stroke:none"
         d="m 6782.63,4701.59 h 311.81 V 4738 h -311.81 v -36.41" /><path
         id="path322"
         style="fill:#fbcd40;fill-opacity:1;fill-rule:evenodd;stroke:none"
         d="m 6704.2,4655.85 h 468.66 v 0 c 0,29.86 -24.29,55.08 -55.1,55.08 H 6760.2 c -30.81,0 -56,-25.22 -56,-55.08 v 0" /><path
         id="path324"
         style="fill:#e9ecf1;fill-opacity:1;fill-rule:evenodd;stroke:none"
         d="m 6632.32,4452.32 h 613.35 v 206.33 h -613.35 v -206.33" /><path
         id="path326"
         style="fill:#b86d4c;fill-opacity:1;fill-rule:evenodd;stroke:none"
         d="m 6807.81,4512.07 h 262.35 v 87.75 h -262.35 v -87.75" /><path
         id="path328"
         style="fill:#ffffff;fill-opacity:1;fill-rule:evenodd;stroke:none"
         d="m 6830.22,4546.61 c 4.66,0 8.4,4.68 8.4,9.34 0,4.66 -3.74,8.4 -8.4,8.4 -4.65,0 -9.33,-3.74 -9.33,-8.4 0,-4.66 4.68,-9.34 9.33,-9.34 v 0" /><path
         id="path330"
         style="fill:#ffffff;fill-opacity:1;fill-rule:evenodd;stroke:none"
         d="m 7050.55,4546.61 c 4.68,0 8.42,4.68 8.42,9.34 0,4.66 -3.74,8.4 -8.42,8.4 -4.67,0 -8.4,-3.74 -8.4,-8.4 0,-4.66 3.73,-9.34 8.4,-9.34 v 0" /><path
         id="path332"
         style="fill:#30445b;fill-opacity:1;fill-rule:evenodd;stroke:none"
         d="m 5778.05,1123.12 c 0,439.69 -358.49,798.19 -798.23,798.19 -439.73,0 -798.24,-358.5 -798.24,-798.19 0,-438.807 358.51,-798.249 798.24,-798.249 439.74,0 798.23,359.442 798.23,798.249 v 0" /><path
         id="path334"
         style="fill:#fbcd40;fill-opacity:1;fill-rule:evenodd;stroke:none"
         d="m 4979.82,1654.33 c 292.2,0 529.35,-237.15 529.35,-530.32 0,-184.85 -94.27,-347.268 -237.15,-442.51 v 0.93 c -84,-56.95 -184.83,-89.641 -292.2,-89.641 -108.29,0 -209.12,32.691 -293.14,89.641 v -0.93 c -142.83,95.242 -237.13,257.66 -237.13,442.51 0,293.17 237.13,530.32 530.27,530.32 v 0" /><path
         id="path336"
         style="fill:#f7ad34;fill-opacity:1;fill-rule:evenodd;stroke:none"
         d="m 4979.82,1594.56 c 259.56,0 470.55,-210.99 470.55,-470.55 0,-259.522 -210.99,-470.51 -470.55,-470.51 -260.45,0 -470.51,210.988 -470.51,470.51 0,259.56 210.06,470.55 470.51,470.55 v 0" /><path
         id="path338"
         style="fill:#ffffff;fill-opacity:1;fill-rule:evenodd;stroke:none"
         d="m 4979.82,1560.96 c 240.88,0 436.95,-196.08 436.95,-436.95 0,-240.85 -196.07,-436.92 -436.95,-436.92 -241.8,0 -436.91,196.07 -436.91,436.92 0,240.87 195.11,436.95 436.91,436.95 v 0" /><path
         id="path340"
         style="fill:#7a7879;fill-opacity:1;fill-rule:evenodd;stroke:none"
         d="m 4964.9,1458.24 14.92,16.84 14.03,-16.84 v -334.23 h -28.95 v 334.23" /><path
         id="path342"
         style="fill:#7a7879;fill-opacity:1;fill-rule:evenodd;stroke:none"
         d="m 5249.64,1140.83 16.8,-14.93 -16.8,-14.03 -269.82,-2.79 v 28.96 l 269.82,2.79" /><path
         id="path344"
         style="fill:#29364a;fill-opacity:1;fill-rule:evenodd;stroke:none"
         d="m 4971.43,1095.1 c 18.65,-3.73 36.41,7.46 40.14,26.11 4.67,18.68 -7.46,37.34 -26.15,41.1 -18.65,3.74 -36.42,-8.41 -41.08,-27.08 -3.72,-17.75 8.39,-36.4 27.09,-40.13 v 0" /><path
         id="path346"
         style="fill:#29364a;fill-opacity:1;fill-rule:evenodd;stroke:none"
         d="m 4628.8,949.43 h -24.3 l 14.96,18.691 355.7,165.249 8.39,-18.68 -354.75,-165.26" /><path
         id="path348"
         style="fill:#29364a;fill-opacity:1;fill-rule:evenodd;stroke:none"
         d="m 4969.56,1502.12 h 20.52 v 40.15 h -20.52 v -40.15" /><path
         id="path350"
         style="fill:#29364a;fill-opacity:1;fill-rule:evenodd;stroke:none"
         d="m 4561.58,1113.74 v 20.57 h 40.13 v -20.57 h -40.13" /><path
         id="path352"
         style="fill:#29364a;fill-opacity:1;fill-rule:evenodd;stroke:none"
         d="m 4990.08,705.781 h -20.52 v 40.149 h 20.52 v -40.149" /><path
         id="path354"
         style="fill:#29364a;fill-opacity:1;fill-rule:evenodd;stroke:none"
         d="m 5397.15,1134.31 v -20.57 h -39.22 v 20.57 h 39.22" /><path
         id="path356"
         style="fill:#7a7879;fill-opacity:1;fill-rule:evenodd;stroke:none"
         d="m 4849.11,1513.34 7.5,1.87 7.45,-23.34 -7.45,-1.87 -7.5,23.34" /><path
         id="path358"
         style="fill:#7a7879;fill-opacity:1;fill-rule:evenodd;stroke:none"
         d="m 4735.21,1453.58 5.6,4.66 14.96,-20.51 -6.56,-3.77 -14,19.62 v 0" /><path
         id="path360"
         style="fill:#7a7879;fill-opacity:1;fill-rule:evenodd;stroke:none"
         d="m 4644.69,1362.08 4.66,5.6 19.58,-13.99 -3.72,-6.53 -20.52,14.92 v 0" /><path
         id="path362"
         style="fill:#7a7879;fill-opacity:1;fill-rule:evenodd;stroke:none"
         d="m 4587.71,1247.26 1.88,6.53 24.28,-7.46 -2.81,-7.47 -23.35,8.4" /><path
         id="path364"
         style="fill:#7a7879;fill-opacity:1;fill-rule:evenodd;stroke:none"
         d="m 4589.59,993.34 -1.88,6.512 23.35,8.398 2.81,-7.45 -24.28,-7.46" /><path
         id="path366"
         style="fill:#7a7879;fill-opacity:1;fill-rule:evenodd;stroke:none"
         d="m 4649.35,879.441 -4.66,5.59 20.52,14.93 3.72,-6.531 -19.58,-13.989 v 0" /><path
         id="path368"
         style="fill:#7a7879;fill-opacity:1;fill-rule:evenodd;stroke:none"
         d="m 4740.81,788.859 -5.6,4.68 14,19.609 6.56,-3.757 -14.96,-20.532 v 0" /><path
         id="path370"
         style="fill:#7a7879;fill-opacity:1;fill-rule:evenodd;stroke:none"
         d="m 4856.61,731.898 -7.5,1.872 7.5,23.351 7.45,-1.871 -7.45,-23.352" /><path
         id="path372"
         style="fill:#7a7879;fill-opacity:1;fill-rule:evenodd;stroke:none"
         d="m 5110.54,733.77 -7.46,-1.872 -7.5,23.352 6.57,1.871 8.39,-23.351" /><path
         id="path374"
         style="fill:#7a7879;fill-opacity:1;fill-rule:evenodd;stroke:none"
         d="m 5224.42,793.539 -6.53,-4.68 -14.01,19.59 5.63,4.699 14.91,-19.609 v 0" /><path
         id="path376"
         style="fill:#7a7879;fill-opacity:1;fill-rule:evenodd;stroke:none"
         d="m 5314.07,885.031 -4.67,-5.59 -19.61,13.989 4.66,6.531 19.62,-14.93 v 0" /><path
         id="path378"
         style="fill:#7a7879;fill-opacity:1;fill-rule:evenodd;stroke:none"
         d="m 5370.99,999.852 -1.85,-6.512 -23.33,7.46 1.87,7.45 23.31,-8.398" /><path
         id="path380"
         style="fill:#7a7879;fill-opacity:1;fill-rule:evenodd;stroke:none"
         d="m 5369.14,1253.79 1.85,-6.53 -23.31,-8.4 -1.87,7.47 23.33,7.46" /><path
         id="path382"
         style="fill:#7a7879;fill-opacity:1;fill-rule:evenodd;stroke:none"
         d="m 5309.4,1367.68 4.67,-5.6 -19.62,-14.92 -4.66,6.53 19.61,13.99 v 0" /><path
         id="path384"
         style="fill:#7a7879;fill-opacity:1;fill-rule:evenodd;stroke:none"
         d="m 5217.89,1458.24 6.53,-4.66 -14.91,-19.62 -5.63,3.77 14.01,20.51 v 0" /><path
         id="path386"
         style="fill:#7a7879;fill-opacity:1;fill-rule:evenodd;stroke:none"
         d="m 5103.08,1515.21 7.46,-1.87 -8.39,-23.34 -6.57,1.87 7.5,23.34" /><path
         id="path388"
         style="fill:#96ddf8;fill-opacity:1;fill-rule:evenodd;stroke:none"
         d="m 1859.72,1123.12 c 0,439.69 -358.49,798.19 -798.22,798.19 -439.738,0 -798.234,-358.5 -798.234,-798.19 0,-438.807 358.496,-798.249 798.234,-798.249 439.73,0 798.22,359.442 798.22,798.249 v 0" /><path
         id="path390"
         style="fill:#ffffff;fill-opacity:1;fill-rule:evenodd;stroke:none"
         d="m 1114.72,1054.02 c 8.39,0 14.92,6.54 14.92,14.92 v 386.52 c 0,7.46 -6.53,14.92 -14.92,14.92 -8.41,0 -14.94,-7.46 -14.94,-14.92 v -386.52 c 0,-8.38 6.53,-14.92 14.94,-14.92 v 0" /><path
         id="path392"
         style="fill:#ffffff;fill-opacity:1;fill-rule:evenodd;stroke:none"
         d="m 1009.2,1054.02 c 8.42,0 14.94,6.54 14.94,14.92 v 386.52 c 0,7.46 -6.52,14.92 -14.94,14.92 -8.39,0 -14.919,-7.46 -14.919,-14.92 v -386.52 c 0,-8.38 6.529,-14.92 14.919,-14.92 v 0" /><path
         id="path394"
         style="fill:#ffffff;fill-opacity:1;fill-rule:evenodd;stroke:none"
         d="m 903.711,1054.02 c 7.477,0 14.008,6.54 14.008,14.92 v 386.52 c 0,7.46 -6.531,14.92 -14.008,14.92 -8.398,0 -14.926,-7.46 -14.926,-14.92 v -386.52 c 0,-8.38 6.528,-14.92 14.926,-14.92 v 0" /><path
         id="path396"
         style="fill:#ffffff;fill-opacity:1;fill-rule:evenodd;stroke:none"
         d="m 565.754,1166.98 c 3.726,0 7.476,0.93 10.277,4.66 l 273.532,272.63 c 5.613,5.58 5.613,14.92 0,20.51 -6.532,6.53 -15.872,6.53 -21.465,0 L 555.473,1192.15 c -5.594,-5.59 -5.594,-14.9 0,-20.51 2.812,-3.73 6.547,-4.66 10.281,-4.66 v 0" /><path
         id="path398"
         style="fill:#ffffff;fill-opacity:1;fill-rule:evenodd;stroke:none"
         d="m 1220.21,1054.02 c 8.4,0 14.93,6.54 14.93,14.92 v 386.52 c 0,7.46 -6.53,14.92 -14.93,14.92 -7.48,0 -14,-7.46 -14,-14.92 v -386.52 c 0,-8.38 6.52,-14.92 14,-14.92 v 0" /><path
         id="path400"
         style="fill:#ffffff;fill-opacity:1;fill-rule:evenodd;stroke:none"
         d="m 1326.65,1054.02 c 7.46,0 14.93,6.54 14.93,14.92 v 386.52 c 0,7.46 -7.47,14.92 -14.93,14.92 -8.42,0 -14.95,-7.46 -14.95,-14.92 v -386.52 c 0,-8.38 6.53,-14.92 14.95,-14.92 v 0" /><path
         id="path402"
         style="fill:#24303b;fill-opacity:1;fill-rule:evenodd;stroke:none"
         d="m 1370.51,1025.08 c 0,24.25 -19.6,43.86 -43.86,43.86 -25.22,0 -44.82,-19.61 -44.82,-43.86 0,-25.228 19.6,-44.85 44.82,-44.85 24.26,0 43.86,19.622 43.86,44.85 v 0" /><path
         id="path404"
         style="fill:#24303b;fill-opacity:1;fill-rule:evenodd;stroke:none"
         d="m 1265.95,1025.08 c 0,24.25 -20.53,43.86 -44.8,43.86 -24.29,0 -44.82,-19.61 -44.82,-43.86 0,-25.228 20.53,-44.85 44.82,-44.85 24.27,0 44.8,19.622 44.8,44.85 v 0" /><path
         id="path406"
         style="fill:#24303b;fill-opacity:1;fill-rule:evenodd;stroke:none"
         d="m 1159.52,1025.08 c 0,24.25 -19.6,43.86 -43.87,43.86 -25.22,0 -44.82,-19.61 -44.82,-43.86 0,-25.228 19.6,-44.85 44.82,-44.85 24.27,0 43.87,19.622 43.87,44.85 v 0" /><path
         id="path408"
         style="fill:#24303b;fill-opacity:1;fill-rule:evenodd;stroke:none"
         d="m 1054.02,1025.08 c 0,24.25 -19.6,43.86 -44.82,43.86 -24.262,0 -43.868,-19.61 -43.868,-43.86 0,-25.228 19.606,-44.85 43.868,-44.85 25.22,0 44.82,19.622 44.82,44.85 v 0" /><path
         id="path410"
         style="fill:#24303b;fill-opacity:1;fill-rule:evenodd;stroke:none"
         d="m 948.523,1025.08 c 0,24.25 -20.531,43.86 -44.812,43.86 -24.273,0 -44.805,-19.61 -44.805,-43.86 0,-25.228 20.532,-44.85 44.805,-44.85 24.281,0 44.812,19.622 44.812,44.85 v 0" /><path
         id="path412"
         style="fill:#24303b;fill-opacity:1;fill-rule:evenodd;stroke:none"
         d="m 578.828,1150.16 c 0,24.27 -19.609,44.83 -44.82,44.83 -24.274,0 -43.875,-20.56 -43.875,-44.83 0,-24.26 19.601,-44.81 43.875,-44.81 25.211,0 44.82,20.55 44.82,44.81 v 0" /><path
         id="path414"
         style="fill:#30445b;fill-opacity:1;fill-rule:evenodd;stroke:none"
         d="m 1460.14,880.371 h 35.48 v 602.159 h -828.1 v -35.47 -566.689 h 34.543 V 1447.06 H 1460.14 V 880.371" /><path
         id="path416"
         style="fill:#f2564e;fill-opacity:1;fill-rule:evenodd;stroke:none"
         d="m 1442.4,824.34 h 70.95 c 9.35,0 17.74,7.461 17.74,16.789 0,29.883 -24.26,53.23 -53.21,53.23 -28.93,0 -53.22,-23.347 -53.22,-53.23 0,-9.328 8.41,-16.789 17.74,-16.789 v 0" /><path
         id="path418"
         style="fill:#f2564e;fill-opacity:1;fill-rule:evenodd;stroke:none"
         d="m 649.781,824.34 h 70.949 c 9.329,0 17.739,7.461 17.739,16.789 0,29.883 -24.266,53.23 -53.215,53.23 -28.945,0 -53.211,-23.347 -53.211,-53.23 0,-9.328 8.391,-16.789 17.738,-16.789 v 0" /><path
         id="path420"
         style="fill:#30445b;fill-opacity:1;fill-rule:evenodd;stroke:none"
         d="m 596.566,764.582 h 969.064 v 87.777 H 596.566 v -87.777" /><path
         id="path422"
         style="fill:#96ddf8;fill-opacity:1;fill-rule:evenodd;stroke:none"
         d="m 3787.62,3041.66 c 0,-423.89 -343.57,-767.42 -767.42,-767.42 -423.85,0 -767.43,343.53 -767.43,767.42 0,422.92 343.58,766.46 767.43,766.46 423.85,0 767.42,-343.54 767.42,-766.46 v 0" /><path
         id="path424"
         style="fill:#94d899;fill-opacity:1;fill-rule:evenodd;stroke:none"
         d="m 2602.88,2735.43 h 833.71 v 626.45 h -833.71 v -626.45" /><path
         id="path426"
         style="fill:none;stroke:#77505d;stroke-width:2.26771998;stroke-linecap:butt;stroke-linejoin:miter;stroke-miterlimit:10;stroke-dasharray:none;stroke-opacity:1"
         d="m 2602.88,2735.43 h 833.71 v 626.45 h -833.71 z" /><path
         id="path428"
         style="fill:#77505d;fill-opacity:1;fill-rule:evenodd;stroke:none"
         d="m 3422.58,3375.88 h -833.71 v -610.56 c 0,-7.5 6.53,-14.96 14.01,-14.96 8.39,0 14.94,7.46 14.94,14.96 v 557.36 24.24 h 42 720.74 42.02 v -24.24 -557.36 c 0,-7.5 6.53,-14.96 14.94,-14.96 8.4,0 14.94,7.46 14.94,14.96 v 557.36 24.24 28.96 h -17.74 -12.14" /><path
         id="path430"
         style="fill:#e4b878;fill-opacity:1;fill-rule:evenodd;stroke:none"
         d="m 3482.32,2706.49 h -924.27 c -8.39,0 -14.93,6.52 -14.93,14.92 v 28.95 c 0,8.4 6.54,14.96 14.93,14.96 h 924.27 c 8.41,0 14.94,-6.56 14.94,-14.96 v -28.95 c 0,-8.4 -6.53,-14.92 -14.94,-14.92 v 0" /><path
         id="path432"
         style="fill:#ffffff;fill-opacity:1;fill-rule:evenodd;stroke:none"
         d="m 2797.06,2765.32 v 0 z m 0,0 v 29.85 c 0,8.41 -6.53,14.95 -14.93,14.95 h -89.63 c -8.39,0 -14.94,-6.54 -14.94,-14.95 v -29.85" /><path
         id="path434"
         style="fill:#ffffff;fill-opacity:1;fill-rule:nonzero;stroke:none"
         d="m 3266.67,2988.43 v 23.35 c -3.74,-3.72 -8.4,-6.56 -14.01,-8.43 -5.6,-2.79 -11.21,-3.72 -17.74,-3.72 -4.66,0 -8.39,0.93 -12.14,2.79 -2.8,0.93 -6.53,2.8 -8.4,5.64 -2.8,2.79 -4.66,5.58 -6.52,9.32 -1.89,3.73 -2.82,7.46 -2.82,12.12 0,3.73 0.93,7.47 2.82,10.27 1.86,3.76 3.72,7.5 6.52,9.36 1.87,2.79 5.6,4.66 8.4,6.53 3.75,1.85 7.48,1.85 12.14,1.85 6.53,0 12.14,-0.93 17.74,-2.79 5.61,-2.8 10.27,-5.59 14.01,-9.33 v 24.25 c -4.67,2.8 -10.28,4.67 -14.94,6.56 -5.6,0.9 -11.21,1.87 -16.81,1.87 -7.46,0 -13.08,-0.97 -19.6,-3.76 -5.6,-2.8 -11.21,-6.53 -15.88,-10.26 -3.72,-4.67 -7.46,-10.26 -10.25,-15.86 -2.82,-5.59 -3.75,-12.15 -3.75,-18.69 0,-7.46 0.93,-13.05 3.75,-19.58 2.79,-5.62 6.53,-11.23 10.25,-15.89 4.67,-4.66 10.28,-7.46 15.88,-10.27 5.6,-2.78 12.14,-3.72 19.6,-3.72 5.6,0 11.21,0 16.81,1.86 4.66,1.86 10.27,3.73 14.94,6.53 z m -116.71,-6.53 v 55.99 c 0,5.64 -0.93,11.24 -2.8,15.9 -2.79,4.66 -5.6,8.39 -8.39,12.12 -3.75,3.73 -8.41,6.53 -13.08,9.33 -4.66,1.86 -9.34,2.83 -14.93,2.83 -6.54,0 -12.15,-0.97 -18.68,-3.76 -5.6,-2.8 -11.21,-6.53 -16.8,-10.26 -3.74,3.73 -8.41,7.46 -13.07,10.26 -4.68,2.79 -10.27,3.76 -15.88,3.76 -4.66,0 -9.33,-0.97 -13.06,-1.87 -4.68,-0.96 -8.41,-2.82 -12.14,-4.69 v 5.59 h -20.53 v -95.2 h 20.53 v 67.23 c 2.8,2.79 5.59,4.66 9.32,5.59 3.75,1.86 8.42,2.79 13.08,2.79 2.8,0 5.62,-0.93 8.41,-1.85 2.8,-0.94 4.67,-1.87 6.53,-3.74 1.87,-1.87 3.74,-3.73 4.66,-6.53 1.87,-1.86 1.87,-4.69 1.87,-7.5 v -55.99 h 20.55 v 62.55 c 2.8,3.74 6.53,7.47 10.27,9.34 3.73,2.79 7.48,3.72 12.13,3.72 2.81,0 5.6,-0.93 8.4,-1.85 2.81,-0.94 5.61,-1.87 7.48,-3.74 1.86,-1.87 3.73,-3.73 4.66,-6.53 0.93,-1.86 1.87,-4.69 1.87,-7.5 v -55.99 z m -188.59,15.86 v 16.82 h -89.62 v -16.82 z m 0,47.63 v 15.86 h -89.62 v -15.86 z m -124.16,-18.69 c 1.86,10.27 0.92,18.69 -1.87,25.22 -1.87,6.53 -5.6,13.06 -10.26,16.79 -4.68,4.67 -9.34,7.49 -15.88,10.3 -6.54,1.85 -12.14,2.79 -18.67,2.79 -6.54,0 -13.07,-1.86 -19.6,-3.73 -5.61,-2.83 -11.21,-6.56 -14.94,-11.21 -4.68,-3.74 -8.41,-9.35 -11.2,-14.94 -2.81,-5.6 -3.74,-12.15 -3.74,-18.69 0,-7.46 0.93,-13.99 3.74,-20.52 2.79,-6.56 6.52,-12.15 11.2,-17.76 4.67,-4.66 10.26,-8.38 16.81,-11.19 6.53,-2.78 13.05,-3.72 20.53,-3.72 6.53,0 14,0.94 19.6,2.79 6.54,1.88 13.08,4.67 18.68,8.4 v 20.55 c -4.67,-3.72 -9.34,-6.56 -15.87,-8.43 -5.6,-2.79 -12.15,-3.72 -19.61,-3.72 -3.73,0 -8.42,0.93 -12.14,1.85 -3.73,1.87 -7.47,3.74 -10.26,5.63 -2.8,2.81 -5.61,5.6 -7.48,9.34 -1.87,2.79 -3.73,6.53 -4.66,10.25 z m -22.41,19.62 h -51.35 c 1.87,4.68 5.6,8.4 10.28,11.19 4.66,3.74 10.26,4.67 16.8,4.67 2.8,0 6.53,0 9.33,-0.93 2.8,-0.93 5.61,-1.87 7.47,-3.74 1.87,-1.85 3.73,-2.79 5.6,-5.59 0.94,-1.87 1.87,-3.73 1.87,-5.6 z m 483.61,26.12 v 6.57 h -14.01 l 10.29,16.78 c 0.92,0.94 1.86,2.8 1.86,4.66 0.93,0.94 0.93,2.81 0.93,5.6 0,0.93 0,2.8 -0.93,4.7 -0.94,0.89 -1.86,1.86 -2.8,3.73 -0.95,0.94 -2.81,1.87 -3.75,1.87 -1.87,0.93 -3.74,0.93 -5.6,0.93 -1.86,0 -4.66,0 -6.52,-0.93 -1.88,-0.93 -2.82,-1.87 -4.68,-3.74 v -10.29 c 0,0.94 0.93,0.94 1.86,2.81 0,0.92 0.94,1.85 1.88,2.79 0.94,0.93 2.8,1.87 3.73,2.83 0.94,0 1.87,0.89 3.73,0.89 1.86,0 2.8,-0.89 4.67,-1.85 0.93,-0.94 1.87,-2.81 1.87,-3.74 0,-1.86 0,-2.79 -0.94,-3.73 0,-0.93 0,-2.8 -0.93,-3.73 l -15.87,-26.15 h 25.21" /><path
         id="path436"
         style="fill:#fbcd40;fill-opacity:1;fill-rule:evenodd;stroke:none"
         d="m 7705.94,1123.12 c 0,-422.96 -343.57,-766.53 -767.42,-766.53 -423.85,0 -767.42,343.57 -767.42,766.53 0,423.83 343.57,767.41 767.42,767.41 423.85,0 767.42,-343.58 767.42,-767.41 v 0" /><path
         id="path438"
         style="fill:#f2564e;fill-opacity:1;fill-rule:evenodd;stroke:none"
         d="m 7507.1,822.469 h -113 l 24.31,96.179 h 64.41 l 24.28,-96.179" /><path
         id="path440"
         style="fill:#f2564e;fill-opacity:1;fill-rule:evenodd;stroke:none"
         d="m 7439.88,886.898 h 22.39 v 282.882 h -22.39 V 886.898" /><path
         id="path442"
         style="fill:#30445b;fill-opacity:1;fill-rule:evenodd;stroke:none"
         d="m 7495.88,918.648 c 0,24.25 -19.59,44.801 -44.81,44.801 -25.22,0 -44.8,-20.551 -44.8,-44.801 0,-25.218 19.58,-45.777 44.8,-45.777 25.22,0 44.81,20.559 44.81,45.777 v 0" /><path
         id="path444"
         style="fill:#30445b;fill-opacity:1;fill-rule:evenodd;stroke:none"
         d="m 6291.55,1177.25 646.97,247.4 647.94,-247.4 -329.58,-126.06 v 98.97 c 0,72.81 -165.24,106.42 -318.36,106.42 -153.1,0 -318.35,-33.61 -318.35,-106.42 v -98.97 l -328.62,126.06" /><path
         id="path446"
         style="fill:#29364a;fill-opacity:1;fill-rule:evenodd;stroke:none"
         d="m 6863.83,1028.81 c 23.36,0.93 48.57,2.79 74.69,2.79 27.08,0 52.29,-1.86 74.68,-2.79 88.71,-5.61 194.21,-20.56 252.09,-51.369 v 173.639 c 0,74.69 -168.98,109.23 -326.77,109.23 -156.83,0 -325.81,-34.54 -325.81,-109.23 V 977.441 c 57.89,30.809 162.45,45.759 251.12,51.369 v 0" /></g></g></svg>